<svg width="1440" height="960" viewBox="0 0 1440 960" fill="none" xmlns="http://www.w3.org/2000/svg">
<path d="M-71.5234 672.7L11.2905 618.091C25.1056 609.007 38.956 599.97 52.9533 591.162C59.949 586.759 67.0035 582.437 74.1168 578.194C81.2183 573.958 88.4139 569.863 95.7153 565.973C103.017 562.083 110.459 558.405 118.107 555.209C125.738 551.916 133.649 549.316 141.746 547.441C149.853 545.643 158.277 544.82 166.601 545.802C170.759 546.281 174.86 547.163 178.847 548.434C180.845 549.068 182.807 549.81 184.726 550.655C186.642 551.478 188.511 552.418 190.357 553.393C197.712 557.365 204.378 562.459 210.533 568.035C216.644 573.659 222.406 579.65 227.787 585.974C238.587 598.566 248.363 611.933 257.934 625.447C276.94 652.54 294.876 680.326 313.129 707.884L367.731 790.667L476.994 956.221L473.555 958.477L365.15 792.359L310.954 709.294C292.842 681.637 275.053 653.762 256.223 626.622C246.77 613.108 237.064 599.711 226.394 587.143C221.094 580.845 215.412 574.878 209.381 569.275C203.326 563.728 196.783 558.699 189.593 554.75C187.794 553.781 185.972 552.852 184.091 552.036C182.226 551.203 180.319 550.469 178.376 549.838C174.488 548.575 170.485 547.693 166.425 547.206C158.301 546.201 150.023 546.959 142.005 548.698C133.973 550.518 126.12 553.055 118.543 556.278C110.9 559.416 103.499 563.053 96.2032 566.854C88.9077 570.656 81.6945 574.751 74.5812 578.947C67.4679 583.142 60.3958 587.425 53.3765 591.791C39.344 600.522 25.4466 609.483 11.5904 618.496L-71.5234 672.7Z" fill="#C6C6C6"/>
<path d="M-71.5234 658.035L16.1346 600.241C30.7375 590.593 45.3756 580.998 60.1312 571.585C67.511 566.885 74.9398 562.256 82.4176 557.701C86.1565 555.429 89.9169 553.184 93.6989 550.967C97.4809 548.75 101.288 546.596 105.121 544.504C112.764 540.279 120.6 536.278 128.601 532.682C136.595 529.023 144.884 526.047 153.38 523.786C161.898 521.594 170.787 520.513 179.611 521.236C188.467 522.008 197.071 524.588 204.89 528.816C212.697 532.993 219.71 538.446 226.182 544.392C232.61 550.381 238.653 556.769 244.277 563.518C247.103 566.875 249.872 570.275 252.584 573.718C255.3 577.167 257.94 580.657 260.567 584.165C265.805 591.216 270.879 598.331 275.881 605.517C295.869 634.309 314.787 663.728 334.134 692.884L391.952 780.502L507.587 955.746L504.148 958.002L389.347 782.195L331.959 694.288C312.753 665.039 293.976 635.531 274.165 606.687C269.203 599.489 264.171 592.344 258.992 585.317C256.393 581.791 253.771 578.307 251.091 574.864C248.41 571.421 245.671 568.03 242.861 564.675C237.316 557.951 231.355 551.581 225.013 545.603C221.83 542.635 218.495 539.836 215.019 537.218C211.56 534.6 207.911 532.243 204.102 530.167C196.49 525.996 188.102 523.43 179.458 522.629C170.822 521.882 162.086 522.887 153.662 525.014C145.228 527.218 136.996 530.131 129.054 533.722C121.07 537.247 113.269 541.214 105.592 545.391C101.753 547.477 97.9492 549.628 94.1575 551.802C90.3657 553.976 86.6091 556.22 82.8585 558.471C75.365 562.971 67.9186 567.56 60.5192 572.237C45.7283 581.574 31.0432 591.098 16.3933 600.67L-71.5234 658.035Z" fill="#C6C6C6"/>
<path d="M-72 643.686L20.7138 582.579L43.8937 567.302C51.6419 562.237 59.3999 557.192 67.1677 552.166C82.7346 542.148 98.4191 532.3 114.515 523.128C122.569 518.563 130.746 514.179 139.141 510.237C147.536 506.294 156.154 502.769 165.114 500.248C169.592 498.96 174.152 497.979 178.764 497.31C183.394 496.642 188.08 496.445 192.75 496.723C197.428 496.991 202.061 497.779 206.565 499.073C211.054 500.401 215.401 502.172 219.539 504.361C223.656 506.558 227.588 509.085 231.297 511.917C235.011 514.725 238.569 517.734 241.955 520.931C248.69 527.332 255.016 534.15 260.896 541.343C266.816 548.482 272.465 555.844 277.944 563.312C283.423 570.78 288.755 578.36 294.005 585.981C304.511 601.258 314.734 616.664 324.916 632.117L355.485 678.465L416.624 771.137L538.902 956.475L535.457 958.731L414.043 772.788L353.334 679.822L323.005 633.333C312.894 617.833 302.747 602.368 292.336 587.091C287.121 579.453 281.848 571.867 276.41 564.399C270.972 556.931 265.393 549.581 259.562 542.448C253.761 535.282 247.516 528.488 240.861 522.106C237.531 518.936 234.032 515.949 230.379 513.157C226.744 510.361 222.889 507.864 218.851 505.689C214.812 503.525 210.566 501.771 206.177 500.454C201.783 499.169 197.26 498.38 192.691 498.103C188.113 497.81 183.517 497.987 178.976 498.632C174.421 499.259 169.915 500.2 165.49 501.447C156.619 503.926 148.042 507.411 139.664 511.277C131.287 515.143 123.116 519.503 115.05 524.01C98.9423 533.093 83.2226 542.865 67.6145 552.801C59.8114 557.775 52.0319 562.785 44.2758 567.831L21.0254 582.996L-72 643.686Z" fill="#C6C6C6"/>
<path d="M-71.5234 628.703L26.0638 564.405C42.301 553.711 58.5087 542.947 74.8692 532.341C91.2298 521.736 107.655 511.289 124.492 501.488C132.916 496.576 141.481 491.91 150.235 487.603C154.615 485.453 159.053 483.414 163.574 481.563C168.094 479.712 172.668 477.997 177.348 476.545C186.689 473.666 196.465 471.88 206.33 472.209C211.256 472.409 216.143 473.168 220.897 474.471C225.638 475.837 230.218 477.707 234.56 480.047C238.891 482.37 243.021 485.05 246.905 488.062C250.785 491.053 254.498 494.254 258.028 497.651C265.03 504.471 271.615 511.708 277.745 519.321C279.279 521.219 280.814 523.116 282.295 525.049L286.704 530.884L291.119 536.719C292.583 538.664 294.059 540.597 295.487 542.594C301.213 550.485 306.774 558.459 312.265 566.532L316.38 572.578C317.75 574.599 319.067 576.638 320.413 578.665L328.461 590.852L344.533 615.189L376.708 663.958L441.051 761.436L569.743 956.434L566.298 958.69L438.476 763.134L374.562 665.356L342.605 616.464L326.627 592.021L318.638 579.799C317.303 577.767 315.986 575.716 314.634 573.7L310.56 567.649C305.111 559.587 299.59 551.578 293.917 543.681C292.512 541.701 291.037 539.768 289.585 537.806L285.217 531.971L280.849 526.136C279.373 524.203 277.857 522.306 276.34 520.414C270.287 512.841 263.783 505.64 256.864 498.85C253.395 495.478 249.743 492.3 245.923 489.331C242.12 486.356 238.075 483.703 233.831 481.399C229.594 479.108 225.124 477.276 220.498 475.934C215.858 474.636 211.085 473.871 206.271 473.654C203.863 473.547 201.45 473.58 199.046 473.754C196.636 473.89 194.237 474.195 191.851 474.542C189.464 474.888 187.089 475.388 184.731 475.923C182.374 476.457 180.028 477.098 177.724 477.815C173.086 479.225 168.53 480.893 164.032 482.727C159.535 484.56 155.114 486.558 150.74 488.679C141.999 492.927 133.433 497.551 125.009 502.41C108.149 512.129 91.6648 522.499 75.2866 533.029C58.9084 543.558 42.6302 554.24 26.3166 564.869L-71.5234 628.703Z" fill="#C6C6C6"/>
<path d="M-71.5234 614.049L30.9373 546.531L56.5569 529.656L69.3667 521.213L82.2059 512.822C99.3366 501.658 116.538 490.571 134.145 480.136C142.963 474.912 151.869 469.877 161.005 465.235C170.14 460.593 179.488 456.339 189.223 453.095C194.101 451.459 199.084 450.152 204.137 449.182C209.207 448.198 214.364 447.732 219.528 447.79C224.708 447.849 229.861 448.544 234.871 449.858C235.5 450.022 236.112 450.205 236.729 450.393C237.346 450.581 237.963 450.751 238.581 450.98C239.815 451.386 241.032 451.838 242.231 452.32C243.431 452.802 244.612 453.319 245.759 453.853L246.652 454.259L247.511 454.7L249.227 455.569C258.357 460.464 266.446 467.003 273.789 474.172C281.082 481.384 287.926 489.037 294.282 497.087C300.702 505.078 306.804 513.304 312.765 521.624C318.726 529.944 324.522 538.37 330.277 546.837L334.569 553.2L338.796 559.599L347.244 572.396L364.204 598.003L397.983 649.204L465.548 751.612L600.671 956.434L597.232 958.69L462.967 753.31L395.814 650.62L362.252 599.278L345.468 573.607L337.073 560.768L332.876 554.358L328.614 547.988C322.915 539.504 317.125 531.082 311.242 522.723C305.328 514.397 299.279 506.171 292.924 498.192C286.646 490.169 279.88 482.54 272.666 475.347C265.429 468.214 257.469 461.733 248.563 456.915L246.864 456.045L246.017 455.61L245.171 455.217C243.995 454.682 242.855 454.171 241.685 453.695C240.515 453.219 239.333 452.772 238.157 452.379C237.57 452.173 236.982 451.997 236.347 451.791C235.712 451.585 235.13 451.421 234.524 451.262C229.634 449.957 224.601 449.256 219.539 449.176C214.47 449.099 209.406 449.538 204.425 450.487C199.427 451.423 194.497 452.695 189.669 454.294C179.987 457.467 170.669 461.692 161.54 466.245C152.41 470.799 143.498 475.817 134.686 480.993C117.049 491.341 99.8187 502.34 82.6409 513.445L69.7724 521.783L56.9273 530.167L31.2371 546.943L-71.5234 614.049Z" fill="#C6C6C6"/>
<path d="M-71.5234 599.395L35.8461 528.651L89.5485 493.303C107.479 481.551 125.45 469.876 143.821 458.806C153.004 453.271 162.286 447.901 171.792 442.913C176.548 440.421 181.357 438.036 186.242 435.809C191.127 433.582 196.095 431.502 201.168 429.698C211.292 426.12 221.92 423.487 232.778 423.382C233.449 423.382 234.125 423.382 234.795 423.382L236.817 423.476C237.493 423.511 238.181 423.534 238.857 423.587L240.879 423.816C241.549 423.893 242.22 423.957 242.896 424.051C243.572 424.145 244.23 424.275 244.9 424.398C246.229 424.645 247.552 424.929 248.869 425.25C254.132 426.584 259.212 428.557 263.995 431.126C268.764 433.67 273.29 436.645 277.516 440.016C279.644 441.673 281.707 443.412 283.718 445.204C285.728 446.996 287.692 448.835 289.597 450.733C297.169 458.366 304.281 466.442 310.895 474.918C317.562 483.332 323.893 491.998 330.101 500.741C336.309 509.484 342.352 518.369 348.325 527.229L490.009 741.799L631.569 956.433L628.13 958.69L487.405 743.497L346.656 528.34C340.689 519.414 334.704 510.601 328.549 501.817C322.394 493.032 316.11 484.401 309.531 475.993C302.995 467.552 295.962 459.507 288.468 451.902C286.587 450.022 284.652 448.183 282.665 446.414C280.678 444.646 278.656 442.889 276.563 441.267C274.47 439.646 272.337 438.03 270.132 436.567C267.927 435.104 265.641 433.735 263.301 432.454C258.635 429.936 253.68 427.994 248.545 426.672C247.258 426.349 245.964 426.084 244.659 425.826C244.007 425.702 243.348 425.585 242.702 425.479C242.055 425.373 241.385 425.321 240.732 425.238L238.763 425.009C238.105 424.956 237.452 424.933 236.788 424.892L234.795 424.792C234.13 424.792 233.46 424.792 232.796 424.792C232.132 424.792 231.467 424.792 230.815 424.839C230.162 424.886 229.504 424.874 228.84 424.927L226.847 425.05L224.86 425.279C224.195 425.35 223.537 425.42 222.884 425.509C222.232 425.597 221.597 425.714 220.927 425.826L218.94 426.155L216.988 426.56C215.683 426.831 214.401 427.148 213.108 427.477L211.168 427.941L209.246 428.476C206.683 429.204 204.143 430.021 201.603 430.903C196.571 432.665 191.609 434.71 186.76 436.913C181.91 439.117 177.089 441.473 172.339 443.935C162.845 448.865 153.527 454.194 144.362 459.682C125.967 470.664 107.961 482.28 89.9835 493.943L36.14 529.074L-71.5234 599.395Z" fill="#C6C6C6"/>
<path d="M-71.5234 584.734L90.7301 477.849L131.405 451.355C145.056 442.635 158.794 434.057 172.88 426.031C179.934 422.029 187.048 418.151 194.337 414.585C201.608 410.963 209.087 407.775 216.735 405.037C220.568 403.689 224.464 402.514 228.422 401.511C230.403 401.018 232.402 400.612 234.401 400.248C235.412 400.066 236.394 399.901 237.423 399.737L240.456 399.372C241.473 399.231 242.502 399.184 243.519 399.114C244.536 399.043 245.553 398.955 246.576 398.973C248.616 398.932 250.691 398.973 252.707 399.096C254.755 399.225 256.793 399.462 258.815 399.807C259.785 399.978 260.844 400.142 261.831 400.395L264.771 401.094H264.853C266.522 401.617 268.292 402.064 270.003 402.739C271.713 403.415 273.371 404.038 275.011 404.784C278.292 406.294 281.465 408.03 284.505 409.978C290.554 413.896 296.219 418.375 301.425 423.357C311.883 433.228 321.054 444.322 329.79 455.674C334.152 461.356 338.39 467.125 342.558 472.948C346.726 478.771 350.7 484.7 354.745 490.611C362.775 502.45 370.941 514.208 378.724 526.194L473.196 669.433L662.092 955.892L658.653 958.154L470.856 670.972L376.955 527.381C369.207 515.359 361.082 503.59 353.128 491.733C349.113 485.857 345.192 479.852 341.024 474.053C336.856 468.254 332.694 462.46 328.343 456.784C319.678 445.45 310.601 434.392 300.284 424.579C295.176 419.639 289.611 415.193 283.665 411.3C280.693 409.376 277.589 407.664 274.376 406.177C272.766 405.43 271.149 404.766 269.468 404.149C267.786 403.533 266.146 403.062 264.412 402.51H264.465L261.525 401.793C260.55 401.558 259.609 401.411 258.586 401.206C256.618 400.858 254.632 400.619 252.637 400.489C250.632 400.354 248.639 400.313 246.629 400.342C245.629 400.342 244.624 400.424 243.625 400.471C242.625 400.518 241.626 400.577 240.632 400.712L237.634 401.059C236.67 401.212 235.653 401.376 234.695 401.552C232.708 401.899 230.738 402.299 228.816 402.775C224.897 403.738 221.037 404.88 217.235 406.2C209.626 408.893 202.182 412.032 194.943 415.601C187.671 419.127 180.552 422.964 173.503 426.93C159.423 434.885 145.655 443.382 131.981 452.066L91.1769 478.401L-71.5234 584.734Z" fill="#C6C6C6"/>
<path d="M-71.5234 570.081L45.6577 492.885C84.7573 467.214 123.622 441.179 163.233 416.254C173.18 410.102 183.221 404.074 193.467 398.415C203.714 392.757 214.178 387.451 225.071 383.097C235.965 378.743 247.364 375.365 259.203 374.683C262.155 374.531 265.114 374.554 268.063 374.754C271.011 374.999 273.94 375.431 276.834 376.046C279.721 376.693 282.561 377.533 285.335 378.561C286.716 379.055 288.115 379.625 289.45 380.248C290.784 380.87 292.119 381.499 293.424 382.187C298.636 384.944 303.56 388.215 308.121 391.952C312.693 395.646 317.049 399.601 321.165 403.797C325.281 407.993 329.196 412.364 332.982 416.836C336.768 421.307 340.436 425.884 344.01 430.526C351.165 439.798 357.99 449.328 364.668 458.924L384.327 487.991L389.241 495.259L394.068 502.58L403.721 517.223L423.027 546.501L461.638 605.065L538.862 722.197L693.308 956.457L689.869 958.713L536.31 723.889L459.522 606.457L421.122 547.753L401.928 518.374L392.328 503.685L387.525 496.346L382.645 489.072L363.11 459.964C356.479 450.345 349.707 440.826 342.611 431.56C339.084 426.922 335.441 422.369 331.683 417.899C327.938 413.434 324.04 409.086 320.001 404.914C315.945 400.752 311.65 396.828 307.139 393.162C302.663 389.474 297.828 386.244 292.706 383.52C291.431 382.839 290.126 382.204 288.815 381.599C287.504 380.994 286.187 380.424 284.817 379.942C282.108 378.932 279.335 378.101 276.516 377.457C273.692 376.846 270.831 376.416 267.951 376.17C265.063 375.966 262.166 375.933 259.274 376.07C257.828 376.14 256.387 376.252 254.953 376.422L252.79 376.681C252.078 376.775 251.361 376.893 250.644 377.016L248.492 377.38L246.364 377.844C244.953 378.168 243.525 378.432 242.12 378.808C236.489 380.289 230.955 382.114 225.548 384.272C214.736 388.675 204.204 393.738 194.014 399.432C183.767 405.037 173.732 411.013 163.738 417.129C124.074 441.896 85.11 467.79 45.9164 493.32L-71.5234 570.081Z" fill="#C6C6C6"/>
<path d="M-71.5234 555.42L50.5665 475.005C91.2945 448.247 131.834 421.213 172.95 395.031C183.285 388.567 193.696 382.222 204.319 376.228C214.904 370.138 225.836 364.67 237.058 359.853C242.688 357.452 248.463 355.403 254.348 353.718C257.287 352.89 260.267 352.185 263.295 351.597C266.323 351.01 269.35 350.64 272.425 350.369C275.492 350.146 278.571 350.111 281.643 350.263C284.723 350.427 287.786 350.82 290.808 351.439C292.318 351.75 293.806 352.085 295.311 352.514C296.816 352.943 298.25 353.431 299.696 353.953C302.594 355 305.417 356.245 308.144 357.679C313.575 360.563 318.706 363.978 323.464 367.873C328.194 371.763 332.699 375.92 336.956 380.324C341.218 384.713 345.268 389.296 349.178 393.985C353.087 398.674 356.885 403.456 360.582 408.31C367.984 418.011 375.032 427.964 381.969 437.988L402.369 468.324L407.466 475.934L412.504 483.572L422.556 498.849L442.667 529.356L482.89 590.375L563.341 712.408L724.236 956.48L720.791 958.736L560.76 714.1L480.744 591.738L440.733 530.578L420.746 500.024L410.752 484.747L405.743 477.109L400.652 469.47L380.376 439.093C373.492 429.063 366.491 419.115 359.148 409.409C355.48 404.563 351.711 399.796 347.843 395.107C343.969 390.406 339.966 385.865 335.751 381.499C331.558 377.135 327.118 373.015 322.453 369.16C317.789 365.314 312.756 361.938 307.427 359.083C304.772 357.671 302.022 356.446 299.197 355.417C297.782 354.896 296.351 354.42 294.905 353.989C293.482 353.577 292.001 353.237 290.531 352.931C287.585 352.315 284.595 351.923 281.59 351.756C278.575 351.591 275.554 351.615 272.542 351.826C269.55 352.079 266.528 352.461 263.565 353.002C260.603 353.542 257.634 354.259 254.747 355.064C248.91 356.715 243.181 358.726 237.593 361.087C226.371 365.746 215.548 371.34 204.931 377.28C194.314 383.22 183.885 389.525 173.538 395.947C132.311 421.924 91.6648 448.823 50.8663 475.44L-71.5234 555.42Z" fill="#C6C6C6"/>
<path d="M-71.5234 540.785L55.3988 457.197L118.889 415.403C140.053 401.477 161.181 387.505 182.586 373.949C193.291 367.181 204.072 360.517 215.066 354.195C220.556 351.034 226.106 347.961 231.732 345.035C237.358 342.109 243.054 339.3 248.88 336.768C254.7 334.202 260.661 331.967 266.734 330.075C272.819 328.166 279.076 326.855 285.417 326.162C291.797 325.468 298.243 325.698 304.558 326.844C307.711 327.425 310.813 328.256 313.835 329.329C316.86 330.384 319.807 331.652 322.653 333.125C325.486 334.601 328.233 336.235 330.883 338.019C332.212 338.907 333.517 339.817 334.804 340.769C336.092 341.721 337.338 342.708 338.572 343.707C343.488 347.757 348.152 352.101 352.54 356.716C361.358 365.905 369.307 375.818 376.937 385.936C384.568 396.054 391.875 406.43 399.053 416.872C402.621 422.101 406.213 427.324 409.694 432.618L420.146 448.483L754.717 955.893L751.273 958.155L418.406 449.617L408.006 433.753C404.55 428.464 400.987 423.229 397.425 417.988C390.294 407.535 383.051 397.158 375.462 387.046C367.872 376.934 359.983 367.069 351.294 357.897C342.605 348.725 333.07 340.346 321.9 334.517C319.125 333.067 316.249 331.818 313.294 330.78C310.346 329.714 307.319 328.883 304.241 328.295C301.166 327.741 298.056 327.401 294.934 327.278C293.377 327.208 291.807 327.278 290.231 327.278C288.679 327.372 287.104 327.461 285.528 327.602C283.953 327.743 282.377 327.937 280.825 328.189C279.273 328.442 277.721 328.7 276.181 329.041C274.641 329.382 273.118 329.735 271.59 330.122L269.303 330.71C268.551 330.916 267.798 331.156 267.046 331.374C261.016 333.236 255.094 335.433 249.309 337.955C243.513 340.452 237.834 343.243 232.214 346.128C226.594 349.013 221.044 352.074 215.554 355.212C204.566 361.481 193.773 368.103 183.05 374.831C161.61 388.31 140.435 402.206 119.23 416.061L55.681 457.626L-71.5234 540.785Z" fill="#C6C6C6"/>
<path d="M-71.4766 912.5C-67.4884 911.972 -63.4634 911.776 -59.4428 911.912C-55.404 912.086 -51.3916 912.651 -47.4619 913.599C-39.5667 915.438 -32.0889 918.94 -25.2931 923.347C-18.5156 927.806 -12.1808 932.904 -6.37527 938.571C-3.43589 941.379 -0.602325 944.241 2.11954 947.231L10.1911 956.274L7.01065 958.877L-0.567055 949.629C-3.11843 946.573 -5.81678 943.636 -8.55628 940.751C-14.0043 934.961 -19.9925 929.704 -26.4394 925.051C-32.8769 920.364 -40.0766 916.826 -47.7205 914.592C-51.5603 913.491 -55.4979 912.765 -59.478 912.424C-63.4728 912.117 -67.486 912.143 -71.4766 912.5Z" fill="#919191"/>
<path d="M-71.5293 890.994C-65.8784 889.296 -60.0733 888.16 -54.1987 887.604C-52.729 887.474 -51.2535 887.386 -49.772 887.339C-48.3023 887.292 -46.8327 887.275 -45.3336 887.339C-43.8345 887.404 -42.3942 887.51 -40.9069 887.662C-40.172 887.745 -39.4372 887.815 -38.6847 887.933L-36.5037 888.285C-35.7747 888.403 -35.034 888.544 -34.305 888.72L-32.1417 889.231C-30.7014 889.596 -29.3022 890.024 -27.8737 890.471C-25.0428 891.398 -22.2808 892.523 -19.6082 893.838C-14.2766 896.47 -9.21623 899.619 -4.49977 903.239C0.215927 906.845 4.69496 910.751 8.90967 914.932C13.1365 919.092 17.1399 923.428 21.061 927.858C28.8563 936.76 36.1165 946.073 43.171 955.551L39.8378 957.96C33.089 948.353 26.1638 938.887 18.6743 929.856C14.953 925.338 11.0907 920.931 7.0461 916.718C3.03632 912.492 -1.24464 908.531 -5.76958 904.861C-8.03878 903.035 -10.3903 901.306 -12.8241 899.672C-15.2466 898.052 -17.7524 896.559 -20.3312 895.201C-22.9058 893.843 -25.5713 892.665 -28.3087 891.676C-29.6785 891.205 -31.0776 890.73 -32.4826 890.33C-33.8876 889.93 -35.2868 889.548 -36.7153 889.284L-38.8787 888.873C-39.5783 888.738 -40.3072 888.644 -41.0362 888.544C-42.4883 888.35 -43.9403 888.197 -45.3982 888.097C-48.3232 887.921 -51.2561 887.921 -54.1811 888.097C-60.045 888.491 -65.8558 889.461 -71.5293 890.994Z" fill="#919191"/>
<path d="M-71.5293 871.629C-64.3112 868.61 -56.8342 866.25 -49.19 864.578C-47.2677 864.197 -45.3512 863.809 -43.3936 863.568C-41.436 863.327 -39.5019 863.092 -37.5148 862.98C-33.5831 862.727 -29.6367 862.823 -25.7221 863.268C-21.803 863.738 -17.9346 864.562 -14.1644 865.73C-10.4007 866.938 -6.74339 868.455 -3.22996 870.266C0.283676 872.071 3.65765 874.135 6.86385 876.442C10.0795 878.721 13.1776 881.142 16.1582 883.739C22.0673 888.934 27.6435 894.496 32.8538 900.391C38.0977 906.267 43.0828 912.307 47.9211 918.477C52.7593 924.646 57.4329 930.939 62.0301 937.279L75.61 956.446L72.2003 958.755L59.0907 939.365C54.6405 932.954 50.1315 926.591 45.4637 920.357C40.796 914.123 35.9813 908.018 30.908 902.089C25.889 896.157 20.5033 890.544 14.7825 885.285C11.9019 882.688 8.90379 880.214 5.79392 877.905C2.7032 875.576 -0.556763 873.48 -3.95892 871.635C-7.36177 869.782 -10.9107 868.21 -14.5701 866.935C-18.2462 865.708 -22.026 864.817 -25.8632 864.273C-29.7136 863.749 -33.603 863.568 -37.4854 863.732C-39.4254 863.821 -41.3654 863.997 -43.3054 864.202C-45.2454 864.408 -47.1619 864.749 -49.0783 865.084C-56.744 866.585 -64.2583 868.776 -71.5293 871.629Z" fill="#919191"/>
<path d="M-71.5234 853.773L-64.9451 850.694L-61.6413 849.155C-60.536 848.661 -59.421 848.183 -58.2962 847.721C-53.8166 845.847 -49.2547 844.16 -44.6105 842.727C-43.4348 842.374 -42.259 842.027 -41.0833 841.71C-39.9075 841.393 -38.7318 841.058 -37.556 840.782C-35.2045 840.194 -32.7942 839.754 -30.4016 839.342C-28.0089 838.931 -25.5692 838.702 -23.1296 838.514C-20.6916 838.344 -18.2461 838.313 -15.8046 838.42C-10.9013 838.594 -6.03635 839.353 -1.31351 840.682C-0.137756 841.023 1.03799 841.363 2.21375 841.769C2.80162 841.963 3.3895 842.192 3.9421 842.403C4.4947 842.615 5.08258 842.827 5.65282 843.062C7.92776 843.981 10.1512 845.022 12.3134 846.182C16.6281 848.513 20.7555 851.175 24.6588 854.143C28.5383 857.116 32.2514 860.3 35.7814 863.68C42.7979 870.45 49.4 877.638 55.5517 885.202C61.7479 892.711 67.6443 900.479 73.3878 908.294C76.2566 912.211 79.0941 916.156 81.9002 920.128L90.1305 932.126L106.638 956.134L103.205 958.402L87.1558 934.159L79.0843 922.037C76.3683 918.03 73.5994 914.052 70.8129 910.098C65.2281 902.189 59.5022 894.386 53.4823 886.824C47.5223 879.223 41.1107 871.987 34.2823 865.154C30.8603 861.766 27.2573 858.564 23.4889 855.565C19.713 852.585 15.7135 849.9 11.5257 847.533C9.42909 846.361 7.27037 845.304 5.05907 844.366C4.51234 844.131 3.95386 843.908 3.38362 843.69C2.81338 843.473 2.26665 843.238 1.70818 843.038C0.591209 842.633 -0.56102 842.274 -1.71913 841.91C-6.32445 840.527 -11.079 839.7 -15.8811 839.448C-25.5046 838.86 -35.1927 840.506 -44.4694 843.22C-49.1195 844.566 -53.6991 846.158 -58.2081 847.956C-59.3289 848.403 -60.4498 848.861 -61.5707 849.331L-64.8804 850.806L-71.5234 853.773Z" fill="#919191"/>
<path d="M-71.5234 837.015C-61.3414 831.409 -50.9478 826.139 -40.0956 821.885C-37.3875 820.823 -34.6441 819.844 -31.8654 818.947C-29.1024 818.019 -26.2688 817.302 -23.4588 816.52C-17.7903 815.074 -11.9855 814.227 -6.13995 813.994C-0.264702 813.766 5.61399 814.346 11.3317 815.715C17.0445 817.127 22.547 819.282 27.6981 822.126C32.8354 824.956 37.695 828.263 42.2128 832.003C46.744 835.708 51.062 839.667 55.146 843.86C59.2612 848.038 63.1353 852.392 66.9035 856.84C70.6718 861.287 74.3284 865.841 77.8968 870.448C85.0395 879.661 91.8647 889.103 98.5489 898.651L118.213 927.495L123.122 934.711L125.579 938.318L127.996 941.949L137.66 956.468L134.215 958.719L124.768 944.065L122.417 940.398L120.018 936.761L115.221 929.487L96.0151 900.402C89.4897 890.801 82.8291 881.294 75.8569 872.022C72.3708 867.386 68.8024 862.809 65.134 858.344C61.4657 853.878 57.6563 849.495 53.6646 845.311C49.6984 841.108 45.4961 837.133 41.0782 833.407C36.6974 829.665 31.9735 826.345 26.9692 823.489C21.9682 820.631 16.6141 818.44 11.0436 816.973C5.45089 815.547 -0.31105 814.895 -6.08116 815.034C-11.8699 815.179 -17.6273 815.931 -23.2589 817.278C-26.0572 818.019 -28.879 818.683 -31.642 819.57C-34.405 820.457 -37.1562 821.38 -39.8722 822.396C-50.7891 826.444 -61.2591 831.562 -71.5234 837.015Z" fill="#919191"/>
<path d="M-71.5293 821.016C-59.9129 814.135 -48.0966 807.554 -35.81 801.902C-29.6695 799.057 -23.3731 796.562 -16.951 794.428C-13.7235 793.417 -10.4843 792.442 -7.16284 791.696C-3.85342 790.931 -0.505638 790.342 2.8663 789.933C6.24825 789.554 9.65214 789.407 13.0542 789.492C16.4631 789.597 19.8581 789.974 23.2068 790.62C26.5642 791.251 29.8622 792.165 33.0655 793.353C36.2583 794.556 39.3672 795.972 42.3715 797.589C45.3628 799.223 48.2562 801.03 51.0368 803.001L53.1179 804.481L55.1402 806.044C56.4688 807.102 57.7974 808.159 59.0848 809.27C64.2433 813.687 69.1334 818.407 73.7288 823.407C82.9232 833.396 91.3121 844.037 99.3837 854.889C103.416 860.318 107.373 865.802 111.253 871.341L117.067 879.649L122.734 888.046L145.414 921.637L167.818 955.393L164.373 957.644L142.398 923.623L120.183 889.785L114.621 881.359L108.931 872.998C105.102 867.424 101.228 861.901 97.3085 856.428C89.4074 845.523 81.1948 834.823 72.2121 824.817C67.7295 819.818 62.9534 815.089 57.9091 810.657C56.6569 809.546 55.3577 808.483 54.0585 807.425L52.095 805.868L50.0668 804.387C47.3632 802.416 44.5463 800.605 41.6308 798.964C38.7072 797.343 35.6788 795.917 32.5658 794.698C29.4468 793.502 26.2338 792.566 22.9599 791.901C19.6817 791.231 16.3558 790.821 13.013 790.673C9.66301 790.546 6.3082 790.648 2.97212 790.979C-0.367775 791.333 -3.68621 791.867 -6.96884 792.577C-10.2551 793.27 -13.4943 794.193 -16.7217 795.168C-23.1463 797.207 -29.4488 799.613 -35.5984 802.372C-47.932 807.854 -59.8247 814.282 -71.5293 821.016Z" fill="#919191"/>
<path d="M-71.5293 805.562C-64.9216 801.56 -58.3727 797.471 -51.6768 793.617C-44.9809 789.762 -38.232 785.978 -31.3421 782.494C-24.4727 778.941 -17.4245 775.744 -10.2257 772.916C-3.02071 770.039 4.44439 767.861 12.0666 766.412C15.8919 765.714 19.762 765.288 23.6477 765.137C27.5473 764.993 31.4519 765.211 35.3111 765.789C43.0442 766.987 50.5062 769.535 57.3565 773.316C64.1395 777.152 70.4763 781.728 76.2508 786.959C82.0086 792.165 87.4558 797.703 92.5643 803.546C102.799 815.198 112.099 827.59 121.129 840.14C130.159 852.691 138.836 865.482 147.448 878.333C151.759 884.745 156.041 891.173 160.293 897.617L173.097 916.919L198.699 955.522L195.26 957.778L170.082 918.893L157.495 899.45C153.306 892.963 149.098 886.5 144.873 880.06C136.42 867.134 127.866 854.307 119.007 841.674C110.148 829.041 101.018 816.614 90.9888 804.945C85.9947 799.106 80.6634 793.563 75.0221 788.346C69.4012 783.133 63.218 778.561 56.5863 774.714C49.9249 770.925 42.6473 768.34 35.0877 767.076C27.5336 765.818 19.803 766.171 12.2194 767.44C4.63895 768.799 -2.79284 770.885 -9.97289 773.668C-17.1841 776.406 -24.2481 779.517 -31.1364 782.987C-38.0498 786.407 -44.8456 790.073 -51.5709 793.869C-58.2962 797.665 -64.8804 801.643 -71.5293 805.562Z" fill="#919191"/>
<path d="M-71.3633 790.285C-64.0148 785.584 -56.6664 780.96 -49.1827 776.442C-41.6991 771.923 -34.2096 767.505 -26.5613 763.327C-18.9131 759.149 -11.1355 755.171 -3.14036 751.658C4.83569 748.069 13.1139 745.192 21.5974 743.062C30.104 741.034 38.9633 740.088 47.7344 741.029C56.5197 742.021 65.0097 744.796 72.6838 749.184C80.3849 753.456 87.3101 758.967 93.7121 764.937C100.066 770.959 106.052 777.357 111.636 784.098C122.894 797.477 133.135 811.643 143.123 825.933L144.992 828.612L146.821 831.327L150.471 836.744L157.779 847.591L172.393 869.278C177.296 876.488 182.052 883.779 186.879 891.018L201.311 912.811L230.176 956.392L226.737 958.648L198.301 914.85L184.08 892.916C179.33 885.618 174.639 878.268 169.818 871.023L155.433 849.218L148.238 838.313L144.646 832.86L142.847 830.134L141.007 827.437C131.177 813.077 121.113 798.869 110.055 785.461C104.586 778.725 98.716 772.325 92.4776 766.294C86.2049 760.33 79.4385 754.837 71.9019 750.577C64.4367 746.206 56.1565 743.407 47.5698 742.351C38.9927 741.346 30.251 742.186 21.8091 744.113C13.3497 746.147 5.08719 748.925 -2.8817 752.416C-10.8827 755.841 -18.6779 759.737 -26.3614 763.826C-34.045 767.916 -41.558 772.24 -49.0711 776.688C-56.5841 781.136 -63.9678 785.69 -71.3633 790.285Z" fill="#919191"/>
<path d="M-71.5293 775.485C-55.2216 764.908 -38.8376 754.432 -22.0126 744.684C-13.5883 739.831 -5.05824 735.142 3.71873 730.941L7.01083 729.36C8.10428 728.826 9.23301 728.367 10.3441 727.868C12.578 726.892 14.7825 725.888 17.0517 724.977C21.5705 723.155 26.1697 721.543 30.8492 720.141C40.1964 717.397 50.0022 715.787 59.8197 716.404C64.728 716.714 69.5823 717.604 74.2814 719.054C78.9745 720.524 83.4958 722.494 87.7673 724.93C96.3208 729.754 103.951 736.035 110.93 742.845C117.867 749.703 124.396 756.962 130.482 764.585C142.739 779.733 153.944 795.674 164.92 811.714L197.341 860.189L261.69 957.421L258.245 959.677L194.755 861.881L162.792 813.201C151.969 797.084 140.941 781.096 128.877 765.919C122.906 758.302 116.491 751.043 109.666 744.179C102.817 737.369 95.3567 731.123 87.003 726.317C82.8448 723.893 78.4378 721.923 73.8581 720.441C69.2793 718.98 64.5432 718.066 59.7491 717.72C50.1374 717.033 40.4433 718.525 31.149 721.169C26.5048 722.497 21.9076 724.107 17.3986 725.87C15.147 726.751 12.919 727.744 10.6968 728.69C9.58572 729.178 8.45701 729.625 7.36356 730.148L4.07146 731.693C-4.74667 735.806 -13.2826 740.412 -21.7421 745.207C-38.6553 754.726 -55.1276 765.049 -71.5293 775.485Z" fill="#919191"/>
<path d="M-71.5234 760.695C-53.6697 749.008 -35.7983 737.339 -17.5095 726.328C-8.36213 720.828 0.896904 715.505 10.3735 710.581C15.1117 708.113 19.9205 705.763 24.794 703.583C29.6675 701.403 34.6292 699.37 39.6967 697.625C44.7591 695.861 49.9368 694.445 55.1931 693.389C60.4698 692.326 65.8416 691.806 71.2244 691.838C76.625 691.896 81.9955 692.65 87.2029 694.082C92.4045 695.534 97.4136 697.604 102.123 700.246C111.529 705.534 119.848 712.497 127.402 720.076C134.908 727.715 141.963 735.784 148.53 744.243C161.751 761.054 173.897 778.651 185.819 796.349L221.256 849.671L291.895 956.433L288.45 958.69L218.681 851.358L183.691 797.783C171.933 780.003 159.941 762.358 146.913 745.489C140.457 737.042 133.513 728.981 126.114 721.346C118.689 713.778 110.542 706.832 101.353 701.591C96.7646 698.971 91.8802 696.905 86.8031 695.439C81.7176 694 76.4678 693.222 71.1833 693.124C60.6015 692.913 50.0727 695.245 40.0259 698.601C34.9819 700.287 30.032 702.261 25.1585 704.4C20.285 706.539 15.4762 708.842 10.7321 711.263C1.23199 716.104 -8.07994 721.345 -17.2449 726.769C-35.616 737.627 -53.5815 749.155 -71.5234 760.695Z" fill="#919191"/>
<path d="M-71.5293 745.982C-52.0471 733.209 -32.6296 720.329 -12.8182 708.066C-2.90664 701.944 7.099 695.962 17.3222 690.357C27.5453 684.751 37.9918 679.522 48.8793 675.268C54.329 673.143 59.9072 671.363 65.5808 669.939C71.2757 668.503 77.1065 667.671 82.976 667.459C88.8679 667.245 94.7606 667.856 100.483 669.275C106.2 670.723 111.703 672.91 116.855 675.779C121.989 678.65 126.842 681.994 131.352 685.768C135.865 689.502 140.163 693.489 144.227 697.707C152.28 706.175 159.848 715.091 166.895 724.413C174.003 733.667 180.81 743.139 187.471 752.704C194.131 762.27 200.669 771.918 207.1 781.625L245.682 839.888L322.759 956.457L319.314 958.713L243.101 841.557L204.96 783.029C198.599 773.267 192.133 763.59 185.56 753.997C178.982 744.402 172.257 734.907 165.249 725.635C158.312 716.319 150.854 707.404 142.91 698.93C138.924 694.729 134.704 690.757 130.271 687.031C125.873 683.297 121.136 679.983 116.12 677.131C111.101 674.294 105.734 672.122 100.154 670.667C94.5618 669.241 88.7978 668.602 83.029 668.769C77.2453 668.935 71.4953 669.711 65.8748 671.084C60.2353 672.454 54.6884 674.179 49.2673 676.249C38.4151 680.403 27.9509 685.539 17.7043 691.056C7.4576 696.573 -2.57742 702.478 -12.5301 708.53C-32.4415 720.617 -51.9531 733.355 -71.5293 745.982Z" fill="#919191"/>
<path d="M-71.5234 731.399C-50.4305 717.515 -29.4551 703.448 -8.10346 689.952C2.57236 683.206 13.3422 676.602 24.3061 670.321C35.27 664.04 46.4572 658.117 58.103 653.134C63.9267 650.633 69.8921 648.475 75.9686 646.671C82.0726 644.879 88.3449 643.719 94.6865 643.21C101.057 642.696 107.469 643.12 113.716 644.468C119.952 645.882 125.954 648.179 131.54 651.289C137.111 654.401 142.36 658.053 147.213 662.195C152.042 666.314 156.64 670.696 160.987 675.321C169.67 684.558 177.589 694.47 185.184 704.57C192.779 714.671 200.063 725.012 207.212 735.43C210.794 740.643 214.339 745.871 217.846 751.112C221.354 756.353 224.854 761.61 228.346 766.883L270.085 830.07L353.622 956.433L350.177 958.69L267.528 831.739L226.194 768.281C222.761 762.981 219.3 757.705 215.812 752.452C212.324 747.199 208.821 741.954 205.301 736.716C198.247 726.269 191.027 715.916 183.55 705.787C176.072 695.657 168.265 685.756 159.694 676.531C155.43 671.927 150.916 667.561 146.173 663.452C141.423 659.357 136.279 655.741 130.817 652.658C125.376 649.578 119.523 647.291 113.434 645.866C107.324 644.504 101.047 644.047 94.8041 644.509C88.5432 644.973 82.3462 646.076 76.3095 647.799C70.2587 649.545 64.3149 651.642 58.5087 654.08C46.8923 658.957 35.6874 664.803 24.7 670.991C13.7126 677.178 2.89568 683.717 -7.8154 690.381C-29.267 703.73 -50.3364 717.656 -71.5234 731.399Z" fill="#919191"/>
<path d="M-71.7949 716.891L-37.6982 694.399L-20.6498 683.159L-3.51321 672.059C7.9386 664.703 19.4727 657.464 31.1714 650.525C42.8701 643.586 54.8099 636.946 67.2082 631.252C73.3975 628.367 79.7494 625.844 86.2318 623.696C92.7261 621.513 99.4217 619.982 106.22 619.125C113.054 618.274 119.979 618.472 126.754 619.713C133.527 621.022 140.053 623.384 146.095 626.711C152.102 630.036 157.738 633.991 162.908 638.509C168.086 642.982 172.993 647.757 177.605 652.811C186.841 662.882 195.242 673.646 203.337 684.616C219.468 706.591 234.494 729.324 249.497 752.022L294.487 820.181L384.496 956.439L381.057 958.695L291.894 821.867L247.333 753.45C232.472 730.658 217.61 707.86 201.667 685.844C193.678 674.856 185.371 664.104 176.265 654.039C171.731 649.009 166.904 644.251 161.809 639.79C156.751 635.316 151.234 631.391 145.349 628.08C139.464 624.789 133.101 622.439 126.49 621.117C119.855 619.857 113.068 619.615 106.361 620.4C99.6394 621.208 93.0149 622.68 86.5845 624.795C80.1285 626.889 73.8001 629.357 67.6315 632.187C55.2449 637.78 43.3228 644.361 31.5594 651.189C19.796 658.016 8.23254 665.208 -3.26042 672.494L-20.4617 683.482L-37.5806 694.646L-71.7949 716.891Z" fill="#919191"/>
<path d="M-71.5234 702.044L-34.9282 677.901L-16.6276 665.826L-7.47443 659.797L1.71994 653.816C13.9771 645.866 26.299 637.987 38.8031 630.413C51.3072 622.839 63.9936 615.524 77.1737 609.137C83.757 605.915 90.5053 603.042 97.3908 600.529C104.296 597.998 111.434 596.152 118.701 595.018C126.009 593.87 133.455 593.921 140.747 595.17C148.035 596.488 155.052 599.016 161.504 602.65C167.924 606.281 173.926 610.606 179.399 615.547C184.864 620.444 190.038 625.655 194.896 631.153C204.643 642.117 213.526 653.781 222.097 665.638C239.186 689.388 255.188 713.872 271.302 738.25L319.613 811.438L416.243 957.744L412.798 960L317.033 813.107L269.168 739.66C253.201 715.182 237.352 690.633 220.439 666.837C211.968 654.962 203.185 643.287 193.567 632.346C188.779 626.869 183.675 621.676 178.282 616.793C172.925 611.91 167.048 607.629 160.758 604.025C154.466 600.437 147.619 597.925 140.5 596.592C133.357 595.327 126.056 595.236 118.883 596.322C111.691 597.402 104.622 599.187 97.7787 601.651C90.9162 604.109 84.1875 606.926 77.6205 610.089C64.4521 616.376 51.754 623.603 39.2029 631.106C26.6517 638.61 14.3005 646.383 1.99625 654.28L-7.22752 660.203L-16.416 666.179L-34.7871 678.112L-71.5234 702.044Z" fill="#919191"/>
<path d="M-71.5234 687.372L6.42293 635.977C19.4561 627.481 32.5128 619.008 45.7518 610.817C52.3771 606.704 59.0319 602.697 65.7748 598.807L75.9745 593.108L81.0772 590.264C82.8056 589.353 84.528 588.46 86.2681 587.573C89.7366 585.806 93.2403 584.1 96.7794 582.455C100.307 580.845 103.916 579.3 107.549 577.878C114.81 574.959 122.328 572.728 130.006 571.215C137.726 569.679 145.643 569.406 153.451 570.404C161.255 571.564 168.791 574.101 175.707 577.895C182.571 581.708 188.965 586.308 194.76 591.603C200.551 596.854 206.026 602.442 211.156 608.337C216.306 614.213 221.203 620.283 225.953 626.458C230.703 632.634 235.312 638.921 239.833 645.261C257.875 670.655 274.829 696.767 291.989 722.714L343.405 800.627L446.283 956.427L442.844 958.684L340.848 802.319L289.838 724.13C272.789 698.083 256.017 671.895 238.157 646.453C233.684 640.102 229.122 633.809 224.419 627.651C219.716 621.493 214.883 615.394 209.804 609.542C204.752 603.667 199.356 598.097 193.644 592.861C187.972 587.614 181.703 583.051 174.967 579.264C168.227 575.513 160.874 572.99 153.251 571.814C145.592 570.788 137.817 571.012 130.229 572.478C122.618 573.93 115.161 576.094 107.955 578.941C104.339 580.334 100.765 581.85 97.2203 583.43C93.6754 585.011 90.1658 586.732 86.7208 588.477C84.9885 589.347 83.2582 590.23 81.5299 591.127L76.4212 593.936L66.2157 599.565C59.4552 603.414 52.7828 607.409 46.1457 611.457C32.8656 619.566 19.7677 627.962 6.68748 636.394L-71.5234 687.372Z" fill="#919191"/>
<path d="M1511.74 285.173L1428.56 340.011C1421.64 344.594 1414.69 349.144 1407.72 353.66C1400.75 358.177 1393.77 362.662 1386.76 367.115C1379.74 371.557 1372.68 375.919 1365.56 380.201C1358.44 384.478 1351.25 388.644 1343.94 392.604C1336.63 396.565 1329.21 400.325 1321.56 403.645C1313.95 407.052 1306.06 409.817 1297.99 411.912C1289.9 413.927 1281.5 415.073 1273.11 414.462C1264.7 413.864 1256.49 411.609 1248.96 407.828C1241.49 404.004 1234.56 399.235 1228.32 393.638C1222.08 388.096 1216.21 382.151 1210.74 375.841C1199.79 363.284 1189.9 349.894 1180.29 336.344C1161.14 309.169 1143.13 281.265 1124.8 253.585L1069.95 170.449L960.215 4.16595L963.654 1.90967L1072.53 168.739L1126.95 252.174C1145.14 279.955 1163.01 307.947 1181.97 335.157C1191.5 348.73 1201.29 362.133 1212.11 374.66C1217.48 380.94 1223.27 386.861 1229.41 392.387C1235.53 397.92 1242.32 402.646 1249.64 406.448C1256.98 410.183 1264.98 412.432 1273.19 413.064C1281.38 413.704 1289.65 412.629 1297.67 410.678C1305.69 408.64 1313.52 405.936 1321.09 402.593C1328.7 399.332 1336.11 395.601 1343.43 391.711C1350.74 387.821 1357.94 383.673 1365.07 379.437C1372.21 375.2 1379.29 370.876 1386.33 366.475C1393.37 362.074 1400.37 357.62 1407.35 353.131C1414.34 348.642 1421.31 344.141 1428.26 339.617L1511.74 285.173Z" fill="#C6C6C6"/>
<path d="M1511.74 299.838L1423.68 357.89C1409.01 367.573 1394.32 377.233 1379.52 386.716C1372.11 391.446 1364.67 396.117 1357.18 400.712C1349.69 405.307 1342.12 409.802 1334.43 414.091C1326.75 418.381 1318.91 422.464 1310.92 426.166C1302.94 429.941 1294.67 433.073 1286.2 435.532C1281.94 436.747 1277.6 437.668 1273.22 438.288C1268.82 438.902 1264.38 439.125 1259.94 438.952C1251.03 438.559 1242.29 436.305 1234.3 432.335C1230.32 430.367 1226.51 428.082 1222.89 425.502C1219.29 422.936 1215.83 420.17 1212.54 417.217C1205.99 411.29 1199.84 404.934 1194.14 398.192C1188.42 391.499 1182.97 384.578 1177.68 377.538C1172.38 370.499 1167.27 363.337 1162.23 356.133C1142.11 327.266 1123.11 297.687 1103.68 268.397L1045.6 180.384L929.445 4.35931L932.89 2.10303L1048.18 178.692L1105.83 266.993C1125.11 296.371 1143.97 326.049 1163.92 354.958C1168.91 362.179 1173.98 369.342 1179.2 376.381C1184.43 383.42 1189.83 390.336 1195.49 397.028C1201.12 403.748 1207.18 410.087 1213.65 416.001C1216.88 418.931 1220.28 421.678 1223.83 424.227C1227.36 426.78 1231.1 429.042 1235 430.99C1242.79 434.908 1251.31 437.15 1260.03 437.571C1264.38 437.76 1268.74 437.563 1273.06 436.983C1277.38 436.392 1281.66 435.503 1285.87 434.321C1294.29 431.922 1302.52 428.853 1310.45 425.144C1318.44 421.507 1326.23 417.47 1333.92 413.222C1341.6 408.974 1349.2 404.52 1356.7 399.978C1364.19 395.436 1371.67 390.788 1379.1 386.094C1393.95 376.692 1408.68 367.103 1423.4 357.485L1511.74 299.838Z" fill="#C6C6C6"/>
<path d="M1511.74 314.498L1418.76 375.77L1395.51 391.094C1387.76 396.186 1379.99 401.251 1372.19 406.288C1356.6 416.359 1340.89 426.266 1324.8 435.532C1316.74 440.15 1308.58 444.604 1300.2 448.635C1291.85 452.745 1283.2 456.229 1274.33 459.058C1269.87 460.439 1265.33 461.529 1260.72 462.319C1258.41 462.69 1256.1 463.007 1253.76 463.207C1251.42 463.402 1249.06 463.472 1246.71 463.418C1237.28 463.258 1228.01 460.992 1219.58 456.784C1215.37 454.728 1211.34 452.31 1207.55 449.557C1203.77 446.829 1200.14 443.886 1196.69 440.744C1189.84 434.421 1183.42 427.651 1177.47 420.478C1171.49 413.357 1165.79 406.006 1160.27 398.532C1154.76 391.059 1149.39 383.479 1144.11 375.84C1133.53 360.564 1123.3 345.099 1113.08 329.604L1082.46 283.133L1021.17 190.191L898.582 4.35931L902.021 2.10303L1023.76 188.499L1084.63 281.699L1115.04 328.318C1125.18 343.847 1135.37 359.353 1145.84 374.653C1151.07 382.292 1156.38 389.895 1161.86 397.363C1167.34 404.831 1172.97 412.188 1178.9 419.303C1184.75 426.447 1191.07 433.195 1197.81 439.504C1204.61 445.709 1212 451.385 1220.25 455.415C1224.36 457.46 1228.68 459.065 1233.12 460.204C1239.84 461.83 1246.77 462.38 1253.66 461.832C1255.95 461.65 1258.24 461.344 1260.51 460.991C1265.06 460.233 1269.56 459.179 1273.97 457.836C1282.8 455.064 1291.41 451.641 1299.72 447.595C1308.09 443.623 1316.25 439.216 1324.32 434.668C1340.42 425.484 1356.17 415.66 1371.8 405.671C1379.61 400.673 1387.41 395.644 1395.19 390.583L1418.5 375.37L1511.74 314.498Z" fill="#C6C6C6"/>
<path d="M1511.74 329.158L1413.85 393.673C1397.53 404.402 1381.26 415.214 1364.87 425.855C1348.49 436.495 1332.02 447.007 1315.17 456.937C1306.76 461.908 1298.2 466.65 1289.45 471.039C1280.73 475.515 1271.69 479.359 1262.41 482.544C1253.12 485.646 1243.38 487.732 1233.49 487.832C1223.57 487.894 1213.77 485.639 1204.87 481.245C1202.64 480.164 1200.49 478.989 1198.36 477.72C1196.24 476.45 1194.22 475.052 1192.23 473.607C1188.26 470.702 1184.46 467.563 1180.86 464.205C1177.26 460.868 1173.81 457.366 1170.5 453.764C1167.19 450.162 1163.95 446.467 1160.83 442.694C1159.27 440.808 1157.74 438.905 1156.21 436.989C1154.69 435.074 1153.24 433.099 1151.76 431.16L1142.94 419.45C1137.17 411.559 1131.57 403.544 1126.05 395.483C1120.53 387.421 1115.16 379.248 1109.78 371.105L1093.63 346.667L1061.36 297.764L996.816 199.968L867.725 4.35931L871.164 2.10303L999.391 198.27L1063.5 296.354L1095.56 345.398L1111.59 369.918C1116.95 378.091 1122.23 386.293 1127.74 394.349C1133.26 402.405 1138.78 410.442 1144.5 418.345L1153.26 430.05C1154.73 431.989 1156.15 433.975 1157.68 435.879C1159.2 437.782 1160.7 439.692 1162.24 441.572C1165.34 445.338 1168.51 449.028 1171.8 452.613C1175.09 456.197 1178.48 459.693 1182.03 463.001C1185.56 466.324 1189.29 469.434 1193.2 472.314C1195.15 473.748 1197.17 475.093 1199.21 476.38C1201.25 477.667 1203.4 478.807 1205.56 479.87C1214.25 484.197 1223.82 486.442 1233.52 486.427C1243.2 486.357 1252.81 484.353 1262.04 481.315C1271.26 478.19 1280.25 474.406 1288.93 469.993C1297.66 465.651 1306.22 460.956 1314.64 456.032C1331.52 446.208 1348.03 435.767 1364.45 425.191C1380.87 414.614 1397.19 403.885 1413.57 393.227L1511.74 329.158Z" fill="#C6C6C6"/>
<path d="M1511.73 343.818L1408.94 411.541L1383.25 428.469L1357.53 445.38C1340.36 456.596 1323.13 467.743 1305.51 478.284C1296.69 483.572 1287.79 488.666 1278.67 493.396C1274.11 495.746 1269.49 498.026 1264.81 500.141C1260.12 502.257 1255.37 504.254 1250.51 505.964C1240.82 509.396 1230.68 511.91 1220.3 512.24C1215.1 512.376 1209.92 511.909 1204.83 510.847C1203.56 510.583 1202.3 510.259 1201.05 509.895C1199.81 509.531 1198.57 509.178 1197.34 508.72C1194.9 507.843 1192.51 506.843 1190.17 505.723C1189.02 505.136 1187.87 504.583 1186.72 503.961L1183.36 502.022C1181.18 500.629 1179.01 499.207 1176.93 497.679C1172.77 494.616 1168.81 491.296 1165.07 487.738C1157.64 480.608 1150.69 472.996 1144.26 464.952C1137.79 456.984 1131.61 448.758 1125.6 440.432C1119.59 432.106 1113.75 423.663 1107.96 415.167C1102.17 406.67 1096.58 398.092 1090.92 389.543L1073.97 363.866L1040.09 312.506L972.341 209.792L836.812 4.35931L840.257 2.10303L974.916 208.094L1042.25 311.09L1075.92 362.591L1092.75 388.338C1098.38 396.917 1103.92 405.53 1109.67 414.015C1115.43 422.5 1121.21 430.955 1127.16 439.281C1133.11 447.607 1139.22 455.838 1145.64 463.8C1151.99 471.809 1158.87 479.391 1166.22 486.498C1169.89 490.025 1173.79 493.318 1177.88 496.357C1179.93 497.873 1182.04 499.295 1184.18 500.653L1187.47 502.574C1188.56 503.162 1189.73 503.749 1190.86 504.337C1193.14 505.433 1195.48 506.413 1197.86 507.275C1199.03 507.703 1200.26 508.05 1201.48 508.45C1202.71 508.849 1203.92 509.125 1205.16 509.39C1210.12 510.45 1215.2 510.927 1220.27 510.812C1225.36 510.652 1230.42 510.023 1235.39 508.931C1240.37 507.846 1245.28 506.446 1250.09 504.742C1254.9 503.05 1259.64 501.117 1264.31 499.019C1268.98 496.921 1273.58 494.695 1278.14 492.356C1287.25 487.655 1296.16 482.614 1304.98 477.391C1322.61 466.944 1339.89 455.874 1357.11 444.733L1382.9 427.94L1408.66 411.118L1511.73 343.818Z" fill="#C6C6C6"/>
<path d="M1511.73 358.478L1404.04 429.421L1350.19 464.881C1332.2 476.633 1314.21 488.384 1295.82 499.548C1286.64 505.136 1277.35 510.571 1267.86 515.641C1263.11 518.18 1258.31 520.618 1253.44 522.916C1248.57 525.213 1243.63 527.369 1238.57 529.267C1233.52 531.217 1228.35 532.833 1223.09 534.103C1220.47 534.796 1217.8 535.278 1215.16 535.731C1213.8 535.966 1212.45 536.083 1211.12 536.242L1210.63 536.306L1210.11 536.359L1209.1 536.424C1208.42 536.471 1207.75 536.53 1207.06 536.547C1196.16 537.165 1185.28 534.972 1175.47 530.178C1170.59 527.809 1165.94 524.967 1161.61 521.693C1159.44 520.089 1157.33 518.385 1155.28 516.629C1153.22 514.872 1151.22 513.062 1149.27 511.194C1145.36 507.462 1141.66 503.555 1138.1 499.513C1134.54 495.47 1131.04 491.357 1127.68 487.174C1120.93 478.771 1114.55 470.105 1108.28 461.356C1102.01 452.607 1095.94 443.729 1089.95 434.821C1083.96 425.913 1078.05 416.918 1072.12 407.957L1054.37 381.04L1018.88 327.23L947.88 219.605L805.914 4.35931L809.359 2.10303L950.449 217.907L1020.99 325.814L1056.27 379.765L1073.9 406.741C1079.78 415.725 1085.61 424.756 1091.61 433.663C1097.61 442.571 1103.62 451.461 1109.83 460.228C1116.05 468.994 1122.37 477.649 1129.05 486.034C1132.38 490.229 1135.81 494.348 1139.36 498.373C1142.91 502.398 1146.56 506.293 1150.41 510.001C1152.33 511.852 1154.3 513.661 1156.33 515.401C1158.36 517.14 1160.44 518.826 1162.56 520.418C1166.8 523.655 1171.34 526.467 1176.13 528.815C1185.71 533.539 1196.34 535.719 1207 535.143C1207.66 535.143 1208.33 535.073 1209 535.031L1209.99 534.967C1210.15 534.961 1210.32 534.945 1210.48 534.92L1210.98 534.861C1212.33 534.702 1213.66 534.591 1214.95 534.373C1217.59 533.95 1220.24 533.468 1222.81 532.793C1228.01 531.561 1233.13 529.991 1238.13 528.092C1243.14 526.23 1248.06 524.097 1252.92 521.835C1257.78 519.572 1262.58 517.134 1267.31 514.648C1276.8 509.625 1286.09 504.243 1295.29 498.696C1313.7 487.626 1331.74 475.939 1349.76 464.247L1403.75 428.992L1511.73 358.478Z" fill="#C6C6C6"/>
<path d="M1511.73 373.138L1347.85 481.086C1341.04 485.605 1334.16 490.018 1327.31 494.489L1306.73 507.862C1292.96 516.676 1279.1 525.36 1264.87 533.492C1257.77 537.546 1250.58 541.471 1243.23 545.097C1235.89 548.773 1228.35 552.016 1220.64 554.809C1216.77 556.178 1212.82 557.371 1208.84 558.387C1206.85 558.893 1204.83 559.316 1202.81 559.686C1201.79 559.868 1200.79 560.039 1199.76 560.209C1198.73 560.379 1197.72 560.456 1196.7 560.585C1196.18 560.638 1195.67 560.72 1195.15 560.755L1193.6 560.855L1192.06 560.955L1191.29 561.002H1190.52C1188.46 561.043 1186.4 561.002 1184.32 560.885C1180.2 560.614 1176.11 559.947 1172.12 558.893H1172.08C1170.41 558.37 1168.64 557.923 1166.93 557.248C1165.22 556.572 1163.57 555.955 1161.93 555.203C1158.64 553.696 1155.47 551.961 1152.43 550.009C1146.38 546.094 1140.71 541.617 1135.49 536.635C1125.04 526.77 1115.87 515.683 1107.14 504.354C1102.77 498.678 1098.52 492.924 1094.38 487.091C1090.18 481.292 1086.24 475.34 1082.19 469.464C1074.17 457.63 1066 445.873 1058.22 433.893L963.835 290.695L775.016 4.35931L778.461 2.10303L966.187 289.156L1060.05 432.682C1067.79 444.698 1075.89 456.455 1083.86 468.307C1087.88 474.212 1091.79 480.187 1095.96 485.981C1100.13 491.774 1104.29 497.574 1108.62 503.244C1117.28 514.572 1126.35 525.624 1136.66 535.431C1141.77 540.361 1147.34 544.796 1153.29 548.675C1156.26 550.598 1159.36 552.31 1162.57 553.799C1164.18 554.545 1165.8 555.203 1167.48 555.826C1169.16 556.448 1170.8 556.913 1172.54 557.459H1172.48L1175.47 558.194C1176.46 558.434 1177.41 558.581 1178.44 558.781C1180.43 559.124 1182.44 559.362 1184.45 559.492C1186.48 559.627 1188.49 559.657 1190.51 559.627H1191.28L1192.04 559.586L1193.55 559.492L1195.06 559.398C1195.57 559.363 1196.07 559.292 1196.57 559.239C1197.57 559.116 1198.6 559.016 1199.59 558.875C1200.58 558.734 1201.6 558.552 1202.59 558.376C1204.59 558.017 1206.59 557.606 1208.55 557.118C1212.5 556.131 1216.39 554.956 1220.24 553.593C1227.91 550.848 1235.42 547.656 1242.73 544.033C1250.06 540.449 1257.24 536.565 1264.36 532.54C1278.57 524.479 1292.46 515.865 1306.26 507.098L1326.87 493.807C1333.74 489.365 1340.63 484.994 1347.45 480.481L1511.73 373.138Z" fill="#C6C6C6"/>
<path d="M1511.74 387.797L1394.23 465.187C1355.03 490.934 1316.04 516.987 1276.4 542.088C1266.45 548.281 1256.42 554.374 1246.16 560.097C1235.96 565.933 1225.43 571.183 1214.63 575.821C1209.2 578.096 1203.65 580.058 1198 581.696C1196.58 582.102 1195.16 582.496 1193.73 582.836L1189.4 583.794C1188.68 583.97 1187.94 584.076 1187.22 584.205L1185.04 584.57C1184.32 584.687 1183.55 584.781 1182.84 584.858C1182.13 584.934 1181.37 585.04 1180.64 585.11C1177.69 585.371 1174.73 585.466 1171.77 585.392C1168.81 585.309 1165.86 585.01 1162.95 584.499C1160.02 584.015 1157.13 583.304 1154.31 582.372C1152.9 581.914 1151.52 581.42 1150.13 580.886C1148.74 580.351 1147.39 579.71 1146.06 579.082C1140.72 576.504 1135.67 573.381 1130.99 569.763C1126.32 566.155 1121.88 562.266 1117.69 558.117C1113.5 554.004 1109.51 549.644 1105.68 545.191C1101.85 540.737 1098.14 536.177 1094.51 531.547C1087.28 522.287 1080.4 512.745 1073.69 503.156C1067.07 493.472 1060.53 483.73 1053.95 474.024C1047.36 464.317 1040.95 454.51 1034.48 444.733L1015.12 415.355L976.4 356.656L898.977 239.218L744.125 4.35931L747.564 2.10303L901.552 237.538L978.564 355.258L1017.06 414.115L1036.3 443.546C1042.77 453.341 1049.09 463.207 1055.66 472.925C1062.24 482.643 1068.69 492.397 1075.27 502.092C1081.95 511.711 1088.79 521.235 1095.93 530.484C1103.08 539.732 1110.58 548.745 1118.86 556.977C1127.14 565.209 1136.22 572.712 1146.72 577.736C1148.03 578.371 1149.35 578.97 1150.68 579.499C1152.01 580.028 1153.4 580.521 1154.8 580.974C1157.54 581.891 1160.36 582.594 1163.21 583.077C1166.06 583.586 1168.95 583.888 1171.85 583.982C1174.75 584.068 1177.65 583.985 1180.55 583.735C1192.14 582.637 1203.39 579.07 1214.18 574.628C1224.95 570.056 1235.46 564.873 1245.64 559.104C1255.89 553.428 1265.93 547.382 1275.9 541.23C1315.6 516.294 1354.67 490.376 1393.99 464.769L1511.74 387.797Z" fill="#C6C6C6"/>
<path d="M1511.74 402.446L1389.33 483.061C1348.51 509.895 1307.85 536.97 1266.68 563.299C1256.34 569.81 1245.92 576.197 1235.3 582.266C1224.69 588.336 1213.88 594.1 1202.64 598.983C1191.41 603.866 1179.72 607.92 1167.43 609.342C1164.37 609.716 1161.28 609.879 1158.19 609.829C1156.65 609.829 1155.12 609.747 1153.57 609.636C1152.01 609.524 1150.49 609.307 1148.97 609.048C1147.45 608.789 1145.92 608.513 1144.42 608.172C1143.67 607.996 1142.92 607.814 1142.17 607.614C1141.42 607.414 1140.68 607.179 1139.95 606.944C1137 606.001 1134.13 604.873 1131.33 603.566C1125.78 600.86 1120.53 597.594 1115.65 593.818C1113.21 591.944 1110.87 589.952 1108.6 587.907C1106.33 585.862 1104.08 583.753 1101.92 581.579C1093.24 572.895 1085.46 563.399 1077.98 553.734C1070.5 544.068 1063.4 534.085 1056.44 524.05L1053.83 520.277L1051.28 516.476L1046.14 508.879L1035.92 493.666C1029.07 483.548 1022.4 473.33 1015.66 463.142L995.499 432.553L955.176 371.381L874.526 249.042L713.23 4.35931L716.67 2.10303L877.107 247.368L957.322 369.988L997.433 431.278L1017.49 461.931C1024.18 472.149 1030.82 482.397 1037.63 492.521L1047.78 507.756L1052.86 515.395L1055.4 519.202L1057.99 522.974C1064.91 533.022 1071.96 542.981 1079.37 552.659C1086.78 562.336 1094.5 571.79 1103.07 580.421C1105.2 582.584 1107.4 584.679 1109.66 586.708C1111.92 588.741 1114.23 590.716 1116.62 592.584C1121.4 596.306 1126.54 599.53 1131.97 602.209C1134.71 603.497 1137.52 604.609 1140.39 605.54C1141.1 605.769 1141.83 605.998 1142.55 606.204C1143.27 606.41 1144.01 606.574 1144.74 606.751C1146.21 607.091 1147.69 607.383 1149.19 607.626C1150.67 607.873 1152.18 608.061 1153.67 608.214C1155.17 608.366 1156.69 608.396 1158.2 608.419C1161.22 608.476 1164.24 608.327 1167.25 607.973C1170.26 607.65 1173.25 607.157 1176.21 606.498C1179.19 605.857 1182.09 605.088 1185.03 604.206C1190.84 602.408 1196.55 600.281 1202.12 597.837C1213.29 593.019 1224.11 587.314 1234.72 581.297C1245.33 575.28 1255.77 568.958 1266.12 562.495C1307.35 536.324 1348.12 509.39 1389.04 482.696L1511.74 402.446Z" fill="#C6C6C6"/>
<path d="M1511.73 417.083L1384.17 501.105L1320.37 543.093C1299.11 557.089 1277.88 571.138 1256.38 584.811C1245.64 591.639 1234.81 598.325 1223.79 604.742C1218.28 607.938 1212.72 611.052 1207.08 614.025C1201.44 616.998 1195.73 619.842 1189.91 622.457C1184.08 625.084 1178.12 627.395 1172.05 629.378C1171.29 629.631 1170.53 629.866 1169.76 630.095C1168.99 630.324 1168.23 630.571 1167.45 630.771C1165.9 631.188 1164.36 631.588 1162.8 631.946C1161.24 632.305 1159.67 632.645 1158.1 632.922L1155.75 633.321C1154.95 633.45 1154.15 633.544 1153.35 633.638C1152.56 633.732 1151.78 633.832 1150.97 633.915L1148.57 634.085C1146.95 634.22 1145.35 634.214 1143.75 634.232C1140.53 634.214 1137.31 633.951 1134.13 633.444C1130.94 632.967 1127.79 632.22 1124.72 631.212C1121.66 630.224 1118.67 629.021 1115.78 627.61C1112.89 626.192 1110.09 624.603 1107.4 622.851C1104.7 621.115 1102.09 619.244 1099.58 617.245C1094.59 613.24 1089.86 608.922 1085.42 604.319C1076.52 595.141 1068.48 585.199 1060.77 575.052C1053.07 564.904 1045.73 554.486 1038.51 543.987C1034.91 538.734 1031.31 533.487 1027.8 528.169L1017.29 512.234L681.066 2.25628L684.476 0L1018.98 511.082L1029.45 527.053C1032.93 532.341 1036.5 537.629 1040.09 542.882C1047.26 553.382 1054.55 563.799 1062.2 573.947C1069.85 584.094 1077.81 594.007 1086.61 603.138C1090.99 607.71 1095.65 612 1100.57 615.982C1103.04 617.957 1105.6 619.806 1108.25 621.523C1110.88 623.249 1113.62 624.819 1116.44 626.223C1119.26 627.605 1122.18 628.784 1125.18 629.749C1128.16 630.741 1131.22 631.48 1134.33 631.958C1137.44 632.467 1140.58 632.736 1143.74 632.763C1145.31 632.763 1146.9 632.763 1148.44 632.634L1150.79 632.475C1151.56 632.405 1152.37 632.299 1153.14 632.211C1153.91 632.122 1154.71 632.028 1155.49 631.911L1157.84 631.523C1159.4 631.259 1160.94 630.936 1162.48 630.577C1164.02 630.219 1165.55 629.825 1167.09 629.402C1167.85 629.214 1168.6 628.973 1169.36 628.75C1170.12 628.526 1170.87 628.292 1171.63 628.045C1177.67 626.097 1183.59 623.824 1189.38 621.235C1195.18 618.655 1200.88 615.847 1206.5 612.897C1212.13 609.947 1217.67 606.863 1223.2 603.696C1234.22 597.344 1245.07 590.681 1255.83 583.894C1277.36 570.322 1298.63 556.343 1319.95 542.418L1383.87 500.635L1511.73 417.083Z" fill="#C6C6C6"/>
<path d="M1511.73 47.0881C1503.65 48.4689 1495.27 48.7039 1487.11 47.0881C1483.04 46.2974 1479.04 45.1168 1475.19 43.5627C1471.34 41.9873 1467.63 40.0967 1464.09 37.9102C1457.05 33.5018 1450.48 28.3826 1444.48 22.6333C1441.45 19.7953 1438.56 16.8457 1435.71 13.8197L1427.4 4.54196L1430.58 1.92139L1438.36 11.3754C1441.04 14.4426 1443.78 17.4744 1446.63 20.377C1452.26 26.256 1458.47 31.5424 1465.18 36.1534C1468.54 38.4293 1472.08 40.424 1475.76 42.1172C1479.47 43.7959 1483.33 45.1162 1487.29 46.0599C1495.27 48.0106 1503.57 48.1281 1511.73 47.0881Z" fill="#919191"/>
<path d="M1511.74 68.0645L1507.4 69.3277C1505.95 69.7625 1504.5 70.1621 1503.03 70.5029C1500.09 71.197 1497.11 71.7364 1494.12 72.1187C1491.11 72.5036 1488.09 72.7096 1485.06 72.7357C1482.03 72.7484 1478.99 72.552 1475.98 72.1481C1474.48 71.8896 1473 71.7074 1471.48 71.3549C1469.96 71.0023 1468.54 70.6909 1467.07 70.2326C1464.14 69.4 1461.27 68.3493 1458.49 67.0891C1452.96 64.5394 1447.7 61.418 1442.82 57.7761C1432.99 50.5607 1424.47 41.8058 1416.45 32.7396C1408.44 23.6733 1401 14.1018 1393.77 4.41271L1397.11 2.00366C1404.02 11.8396 1411.12 21.5287 1418.78 30.7477C1426.44 39.9667 1434.61 48.8038 1444.06 56.1485C1448.74 59.8485 1453.8 63.0505 1459.15 65.7024C1461.83 67.0137 1464.6 68.1196 1467.45 69.0104C1468.86 69.5099 1470.32 69.8507 1471.76 70.2444C1473.2 70.638 1474.7 70.8319 1476.14 71.1433C1479.09 71.6204 1482.07 71.8952 1485.06 71.9659C1488.07 72.0228 1491.07 71.9031 1494.06 71.6075C1497.05 71.3106 1500.03 70.8576 1502.97 70.2502C1504.45 69.9564 1505.91 69.598 1507.36 69.2043L1511.74 68.0645Z" fill="#919191"/>
<path d="M1511.43 87.1716C1504.16 90.3557 1496.63 92.9246 1488.92 94.8512C1481.17 96.7863 1473.18 97.5254 1465.21 97.0428C1461.21 96.731 1457.26 96.0445 1453.4 94.9922C1449.53 93.9337 1445.77 92.5215 1442.16 90.7734C1438.54 89.0498 1435.06 87.048 1431.74 84.7861C1428.45 82.5382 1425.26 80.1261 1422.21 77.5589C1416.14 72.3732 1410.42 66.7824 1405.11 60.8249C1399.76 54.9491 1394.67 48.7914 1389.75 42.5455C1384.83 36.2996 1380.08 29.9185 1375.41 23.4964L1361.62 4.03597L1365.03 1.72681L1378.34 21.3811C1382.86 27.8797 1387.45 34.3077 1392.2 40.6359C1396.95 46.964 1401.86 53.1335 1407.04 59.0915C1412.15 65.0835 1417.67 70.7215 1423.56 75.9666C1429.47 81.149 1435.81 85.8907 1442.84 89.3868C1446.33 91.1731 1449.99 92.6363 1453.75 93.7583C1457.52 94.8706 1461.39 95.626 1465.3 96.0146C1473.18 96.6599 1481.11 96.0992 1488.82 94.3518C1496.54 92.5938 1504.11 90.192 1511.43 87.1716Z" fill="#919191"/>
<path d="M1511.73 104.641C1502.95 109.089 1493.96 113.196 1484.59 116.328C1475.22 119.459 1465.46 121.616 1455.5 121.663C1453.02 121.661 1450.54 121.528 1448.07 121.263C1446.83 121.128 1445.59 120.946 1444.38 120.717C1443.16 120.488 1441.92 120.253 1440.72 119.959L1438.9 119.518L1437.13 118.995C1435.96 118.643 1434.75 118.267 1433.61 117.82C1431.26 116.974 1428.97 115.993 1426.75 114.882C1422.3 112.639 1418.05 110.037 1414.03 107.103C1410.03 104.155 1406.21 100.974 1402.59 97.5781C1395.39 90.7684 1388.63 83.5069 1382.36 75.838C1376.05 68.2289 1370.02 60.3848 1364.2 52.4232C1361.27 48.4434 1358.39 44.442 1355.54 40.4191L1347.13 28.2504L1330.38 3.86618L1333.8 1.59814L1350.07 26.2174L1358.22 38.5271C1361 42.5813 1363.8 46.6297 1366.64 50.637C1372.31 58.6632 1378.16 66.5661 1384.28 74.228C1390.36 81.923 1396.92 89.2237 1403.92 96.0857C1407.43 99.4887 1411.14 102.685 1415.02 105.657C1418.92 108.603 1423.05 111.229 1427.37 113.507C1429.54 114.628 1431.77 115.626 1434.05 116.498C1435.17 116.956 1436.31 117.338 1437.48 117.708L1439.24 118.255L1441.01 118.713C1442.18 119.025 1443.36 119.301 1444.56 119.518C1445.77 119.736 1446.96 119.965 1448.17 120.106C1450.6 120.405 1453.04 120.577 1455.49 120.623C1457.93 120.676 1460.38 120.586 1462.81 120.352C1464.03 120.241 1465.26 120.112 1466.47 119.976C1467.67 119.841 1468.9 119.6 1470.1 119.389C1472.52 118.966 1474.92 118.472 1477.3 117.844C1479.67 117.215 1482.05 116.568 1484.39 115.828C1493.8 112.884 1502.85 108.936 1511.73 104.641Z" fill="#919191"/>
<path d="M1511.74 121.193C1501.5 126.94 1491.06 132.357 1480.19 136.882C1477.47 138.002 1474.72 139.054 1471.96 140.037C1469.18 141.006 1466.39 141.941 1463.54 142.675C1457.86 144.336 1452.04 145.409 1446.15 145.877C1440.23 146.369 1434.28 146.054 1428.45 144.943C1425.54 144.384 1422.66 143.61 1419.86 142.628C1417.06 141.66 1414.32 140.505 1411.66 139.173C1409.01 137.841 1406.43 136.366 1403.94 134.754C1401.46 133.15 1399.02 131.458 1396.7 129.613C1392.06 125.949 1387.64 122.015 1383.46 117.832C1379.28 113.666 1375.3 109.307 1371.45 104.835C1367.61 100.364 1363.9 95.7925 1360.28 91.1507C1353.03 81.8729 1346.11 72.3484 1339.35 62.7357C1337.64 60.3384 1336.01 57.9 1334.35 55.4733L1329.38 48.1815L1319.46 33.6097C1316.16 28.7446 1312.82 23.9089 1309.57 19.0144L1299.81 4.32511L1303.25 2.07471L1312.79 16.8757C1315.97 21.8171 1319.26 26.6823 1322.45 31.565L1332.15 46.2543L1336.99 53.6048C1338.61 56.0491 1340.21 58.5111 1341.87 60.926C1348.48 70.6151 1355.23 80.1984 1362.3 89.529C1365.83 94.2002 1369.46 98.795 1373.21 103.29C1376.96 107.785 1380.85 112.156 1384.91 116.334C1393.07 124.654 1402 132.375 1412.35 137.745C1414.93 139.086 1417.59 140.254 1420.33 141.241C1423.05 142.245 1425.85 143.042 1428.69 143.627C1434.4 144.805 1440.25 145.2 1446.07 144.802C1451.9 144.415 1457.68 143.43 1463.32 141.864C1466.16 141.177 1468.96 140.284 1471.74 139.361C1474.51 138.439 1477.27 137.41 1480 136.335C1490.9 132.069 1501.42 126.793 1511.74 121.193Z" fill="#919191"/>
<path d="M1511.74 137.074C1500.01 144.125 1488.1 150.853 1475.74 156.74C1469.56 159.699 1463.23 162.331 1456.78 164.626C1455.16 165.213 1453.52 165.719 1451.88 166.218C1450.24 166.717 1448.6 167.199 1446.94 167.634C1445.28 168.069 1443.6 168.445 1441.92 168.809C1440.24 169.173 1438.55 169.467 1436.85 169.72C1433.44 170.223 1430 170.498 1426.55 170.542C1423.1 170.581 1419.65 170.339 1416.24 169.82C1412.82 169.307 1409.45 168.521 1406.15 167.469C1402.88 166.369 1399.68 165.036 1396.59 163.48C1393.51 161.928 1390.53 160.175 1387.68 158.233C1386.25 157.257 1384.84 156.294 1383.46 155.248L1381.41 153.662L1379.41 152.04C1374.12 147.642 1369.11 142.914 1364.42 137.885C1359.72 132.885 1355.26 127.656 1350.9 122.35C1346.54 117.044 1342.39 111.603 1338.29 106.115C1334.19 100.627 1330.19 95.0629 1326.25 89.4751L1320.37 81.0669L1314.62 72.5706L1291.66 38.556L1268.94 4.35343L1272.38 2.10303L1294.64 36.5524L1317.14 70.8079L1322.78 79.363L1328.55 87.824C1332.41 93.4451 1336.34 99.0231 1340.33 104.558C1344.34 110.075 1348.44 115.528 1352.68 120.863C1356.92 126.198 1361.27 131.44 1365.88 136.446C1370.46 141.476 1375.34 146.211 1380.52 150.624L1382.47 152.251L1384.46 153.826C1385.79 154.854 1387.19 155.847 1388.58 156.817C1391.35 158.756 1394.25 160.511 1397.25 162.07C1400.25 163.633 1403.36 164.976 1406.56 166.089C1412.99 168.249 1419.72 169.356 1426.51 169.367C1429.9 169.368 1433.29 169.138 1436.66 168.68C1438.34 168.457 1440.02 168.169 1441.69 167.846C1443.36 167.522 1445.02 167.182 1446.68 166.764C1448.33 166.347 1449.97 165.895 1451.61 165.419C1453.25 164.943 1454.88 164.449 1456.49 163.897C1462.95 161.682 1469.29 159.133 1475.48 156.259C1487.92 150.553 1499.91 143.955 1511.74 137.074Z" fill="#919191"/>
<path d="M1511.74 152.434L1501.74 158.544C1498.41 160.577 1495.09 162.657 1491.72 164.591C1484.99 168.545 1478.2 172.382 1471.25 175.989C1464.31 179.597 1457.29 183.04 1450.04 185.978C1442.82 188.999 1435.34 191.376 1427.7 193.082C1423.85 193.9 1419.96 194.457 1416.04 194.751C1412.11 195.053 1408.16 194.994 1404.24 194.574C1396.38 193.702 1388.74 191.404 1381.7 187.794C1378.18 186.005 1374.81 183.965 1371.59 181.689C1368.36 179.435 1365.26 177.015 1362.29 174.438C1356.39 169.26 1350.82 163.716 1345.62 157.839C1340.39 152.005 1335.45 145.923 1330.64 139.76C1325.83 133.596 1321.18 127.297 1316.62 120.957C1307.5 108.26 1298.7 95.3569 1289.99 82.395C1285.63 75.9121 1281.31 69.4156 1277 62.9052L1264.07 43.392L1238.2 4.37125L1241.64 2.12085L1267.09 41.4177L1279.81 61.072C1284.05 67.6254 1288.31 74.1631 1292.58 80.6852C1301.13 93.7293 1309.78 106.715 1318.73 119.465C1323.22 125.84 1327.78 132.151 1332.49 138.344C1337.2 144.537 1342.06 150.636 1347.19 156.476C1352.27 162.348 1357.72 167.894 1363.5 173.081C1366.4 175.655 1369.43 178.073 1372.58 180.326C1375.71 182.59 1379 184.628 1382.43 186.425C1389.28 190.028 1396.73 192.356 1404.41 193.294C1412.09 194.234 1419.92 193.576 1427.52 192.071C1435.13 190.462 1442.59 188.183 1449.81 185.261C1457.06 182.406 1464.12 179.074 1471.07 175.549C1478.03 172.023 1484.87 168.263 1491.65 164.385C1495.05 162.458 1498.38 160.442 1501.74 158.445L1511.74 152.434Z" fill="#919191"/>
<path d="M1511.74 167.534C1496.96 177 1482.07 186.336 1466.73 194.903C1459.06 199.175 1451.27 203.247 1443.27 206.919C1435.29 210.655 1427.03 213.732 1418.55 216.121C1410.05 218.436 1401.19 219.722 1392.32 219.217C1387.88 218.971 1383.49 218.242 1379.21 217.043C1374.95 215.828 1370.81 214.196 1366.87 212.172C1358.95 208.147 1351.8 202.771 1345.26 196.895C1338.75 190.936 1332.64 184.564 1326.95 177.817C1315.53 164.414 1305.14 150.201 1295.06 135.799C1292.52 132.215 1290.08 128.566 1287.63 124.923L1280.23 113.989L1265.53 92.1427C1260.6 84.8744 1255.78 77.5415 1250.93 70.2262L1236.39 48.2745L1207.29 4.35343L1210.74 2.10303L1239.39 46.2885L1253.72 68.3812C1258.5 75.7435 1263.25 83.1293 1268.1 90.4269L1282.59 112.396L1289.82 123.39C1292.24 127.05 1294.63 130.723 1297.14 134.325C1307.06 148.779 1317.25 163.045 1328.48 176.477C1334.05 183.218 1340.04 189.591 1346.43 195.555C1352.84 201.461 1359.81 206.796 1367.53 210.832C1371.38 212.85 1375.41 214.483 1379.58 215.709C1383.75 216.924 1388.04 217.681 1392.38 217.965C1401.07 218.553 1409.82 217.378 1418.25 215.157C1426.71 212.861 1434.97 209.878 1442.95 206.238C1450.96 202.659 1458.78 198.67 1466.47 194.486C1481.87 186.031 1496.84 176.859 1511.74 167.534Z" fill="#919191"/>
<path d="M1511.35 182.659C1494.94 193.329 1478.47 203.923 1461.56 213.8C1453.11 218.736 1444.51 223.489 1435.75 227.838L1429.12 231.022L1422.38 233.96C1417.87 235.893 1413.25 237.574 1408.58 239.072C1399.22 242.039 1389.41 243.943 1379.51 243.678C1374.55 243.548 1369.63 242.832 1364.84 241.546C1360.06 240.24 1355.45 238.405 1351.08 236.075C1342.33 231.433 1334.52 225.246 1327.41 218.448C1320.34 211.621 1313.71 204.36 1307.54 196.708C1295.13 181.496 1283.82 165.449 1272.74 149.308L1240.07 100.475L1175.25 2.56217L1178.7 0.311768L1242.65 98.8183L1274.86 147.898C1285.8 164.115 1296.92 180.215 1309.14 195.445C1315.19 203.089 1321.71 210.35 1328.65 217.185C1335.63 223.96 1343.26 230.111 1351.8 234.736C1356.06 237.056 1360.56 238.891 1365.22 240.206C1369.89 241.506 1374.7 242.25 1379.55 242.421C1389.25 242.762 1398.95 240.976 1408.26 238.114C1412.93 236.663 1417.53 235.035 1422.04 233.155L1428.77 230.264L1435.41 227.156C1444.22 222.89 1452.81 218.219 1461.3 213.36C1478.28 203.63 1494.85 193.188 1511.35 182.659Z" fill="#919191"/>
<path d="M1511.73 197.189L1498.27 206.002L1484.75 214.751C1475.72 220.557 1466.64 226.297 1457.47 231.862C1448.29 237.426 1439.01 242.849 1429.53 247.879C1420.07 253.006 1410.28 257.497 1400.23 261.322C1395.17 263.202 1390.01 264.758 1384.76 265.982C1379.49 267.22 1374.12 267.942 1368.71 268.138C1363.28 268.327 1357.85 267.82 1352.56 266.628C1347.26 265.418 1342.13 263.551 1337.3 261.07C1327.62 256.117 1319.12 249.26 1311.39 241.756C1303.73 234.181 1296.56 226.135 1289.91 217.666C1276.51 200.826 1264.27 183.146 1252.25 165.372L1216.62 111.732L1145.56 4.35931L1149.02 2.10303L1219.18 110.046L1254.38 163.926C1266.26 181.777 1278.32 199.516 1291.52 216.379C1298.05 224.838 1305.11 232.884 1312.64 240.47C1316.42 244.237 1320.42 247.769 1324.63 251.046C1328.82 254.326 1333.29 257.225 1337.99 259.707C1342.7 262.166 1347.7 264.031 1352.87 265.259C1358.04 266.463 1363.35 267.001 1368.67 266.857C1374 266.706 1379.3 266.037 1384.5 264.86C1389.71 263.684 1394.85 262.181 1399.87 260.359C1409.92 256.628 1419.7 252.233 1429.16 247.203C1438.67 242.256 1447.97 236.921 1457.2 231.427C1466.42 225.933 1475.53 220.263 1484.6 214.54L1498.18 205.903L1511.73 197.189Z" fill="#919191"/>
<path d="M1510.18 212.895C1490.67 225.698 1471.22 238.613 1451.4 250.934C1441.47 257.086 1431.47 263.103 1421.24 268.761C1411.06 274.51 1400.54 279.63 1389.73 284.091C1384.29 286.277 1378.73 288.129 1373.06 289.638C1367.38 291.17 1361.56 292.121 1355.69 292.476C1349.8 292.833 1343.88 292.376 1338.11 291.118C1332.34 289.826 1326.77 287.769 1321.55 285.002C1316.34 282.245 1311.42 278.988 1306.85 275.277C1302.28 271.587 1297.93 267.636 1293.82 263.444C1285.69 255.016 1278.05 246.116 1270.96 236.791C1256.68 218.265 1243.55 198.922 1230.59 179.521L1191.93 121.157L1114.7 4.35931L1118.14 2.10303L1194.5 119.465L1232.71 178.11C1245.53 197.6 1258.49 216.996 1272.58 235.552C1279.55 244.864 1287.07 253.757 1295.09 262.186C1299.12 266.36 1303.39 270.295 1307.87 273.973C1312.34 277.654 1317.16 280.891 1322.25 283.638C1327.34 286.383 1332.77 288.436 1338.4 289.743C1344.04 291.017 1349.83 291.504 1355.61 291.189C1361.4 290.882 1367.15 289.988 1372.76 288.521C1378.39 287.063 1383.92 285.263 1389.33 283.133C1400.14 278.768 1410.67 273.743 1420.86 268.085C1431.1 262.509 1441.14 256.569 1451.11 250.494C1471.03 238.325 1490.57 225.551 1510.18 212.895Z" fill="#919191"/>
<path d="M1510.26 227.425C1489.1 241.333 1468.11 255.435 1446.74 268.984C1436.05 275.759 1425.28 282.399 1414.31 288.727C1403.35 295.055 1392.17 301.066 1380.54 306.143C1374.73 308.693 1368.78 310.917 1362.72 312.806C1356.63 314.693 1350.38 315.975 1344.04 316.631C1340.86 316.937 1337.66 317.041 1334.47 316.942C1331.27 316.824 1328.09 316.466 1324.94 315.873C1318.65 314.643 1312.58 312.497 1306.91 309.503C1301.27 306.519 1295.96 302.965 1291.04 298.898C1286.14 294.837 1281.49 290.493 1277.1 285.889C1268.32 276.688 1260.35 266.805 1252.71 256.692C1245.07 246.58 1237.76 236.239 1230.58 225.81C1223.41 215.38 1216.36 204.868 1209.39 194.31L1167.54 130.993L1083.83 4.35931L1087.29 2.10303L1170.11 129.301L1211.53 192.894C1218.42 203.494 1225.41 214.031 1232.49 224.505C1239.58 234.964 1246.81 245.329 1254.35 255.458C1261.89 265.588 1269.77 275.471 1278.4 284.643C1282.71 289.229 1287.28 293.559 1292.1 297.611C1296.91 301.638 1302.12 305.166 1307.64 308.14C1313.16 311.104 1319.09 313.242 1325.23 314.486C1328.3 315.086 1331.42 315.456 1334.54 315.591C1337.68 315.714 1340.82 315.633 1343.95 315.35C1350.21 314.744 1356.4 313.52 1362.42 311.695C1368.45 309.86 1374.38 307.691 1380.17 305.197C1391.78 300.208 1402.97 294.291 1413.97 288.057C1424.96 281.823 1435.77 275.248 1446.5 268.55C1467.93 255.147 1489.03 241.186 1510.26 227.425Z" fill="#919191"/>
<path d="M1511.74 241.157L1477.52 263.737L1460.41 275.031C1454.7 278.779 1448.97 282.501 1443.22 286.194C1431.73 293.598 1420.18 300.884 1408.44 307.905C1402.56 311.431 1396.63 314.841 1390.65 318.135C1384.66 321.437 1378.59 324.598 1372.4 327.536C1366.22 330.506 1359.89 333.136 1353.42 335.415C1350.18 336.547 1346.9 337.55 1343.58 338.424C1340.25 339.312 1336.88 340.016 1333.48 340.533C1326.65 341.613 1319.71 341.68 1312.86 340.733C1306 339.723 1299.36 337.618 1293.17 334.499C1287.03 331.36 1281.25 327.541 1275.96 323.112C1270.69 318.711 1265.69 313.988 1261 308.969C1251.59 298.951 1243.11 288.18 1234.95 277.199C1218.69 255.182 1203.6 232.367 1188.51 209.581L1143.34 141.17L1052.96 4.35931L1056.4 2.10303L1145.91 139.466L1190.65 208.159C1205.58 231.033 1220.51 253.919 1236.59 275.965C1244.65 286.964 1253.05 297.74 1262.3 307.723C1266.89 312.728 1271.8 317.438 1276.99 321.825C1282.16 326.21 1287.81 329.999 1293.82 333.118C1299.85 336.201 1306.34 338.296 1313.03 339.323C1319.74 340.295 1326.56 340.271 1333.26 339.252C1336.63 338.764 1339.97 338.089 1343.26 337.231C1346.55 336.389 1349.81 335.41 1353.03 334.293C1359.47 332.065 1365.79 329.487 1371.95 326.572C1378.14 323.705 1384.21 320.591 1390.21 317.336C1396.21 314.081 1402.15 310.696 1408.03 307.235C1419.79 300.302 1431.4 293.081 1442.93 285.748C1448.69 282.081 1454.44 278.395 1460.19 274.69L1477.36 263.526L1511.74 241.157Z" fill="#919191"/>
<path d="M1511.74 255.829L1475.06 280.019L1456.73 292.117C1450.62 296.148 1444.51 300.19 1438.36 304.168C1426.09 312.153 1413.77 320.074 1401.26 327.712C1388.76 335.351 1376.1 342.754 1362.97 349.312C1356.41 352.584 1349.72 355.622 1342.86 358.26C1336.01 360.949 1328.92 363.01 1321.7 364.418C1318.07 365.109 1314.4 365.55 1310.71 365.74C1307.01 365.921 1303.31 365.789 1299.63 365.346C1292.26 364.437 1285.1 362.271 1278.47 358.942C1271.87 355.593 1265.69 351.473 1260.07 346.667C1254.48 341.881 1249.2 336.747 1244.25 331.297C1239.28 325.885 1234.58 320.238 1230.01 314.498C1225.44 308.757 1221.04 302.887 1216.72 296.959C1199.5 273.227 1183.44 248.707 1167.3 224.282L1118.91 150.965L1022.08 4.35931L1025.52 2.10303L1121.47 149.272L1169.43 222.872C1185.46 247.368 1201.34 271.981 1218.39 295.754C1222.65 301.689 1227.02 307.559 1231.52 313.305C1236.03 319.051 1240.68 324.686 1245.58 330.086C1250.45 335.498 1255.66 340.6 1261.17 345.363C1266.66 350.122 1272.7 354.213 1279.15 357.549C1285.62 360.844 1292.6 363.003 1299.8 363.93C1307.02 364.785 1314.33 364.519 1321.46 363.143C1328.62 361.794 1335.63 359.798 1342.43 357.179C1349.25 354.6 1355.95 351.615 1362.49 348.366C1375.61 341.902 1388.29 334.569 1400.83 327.031C1413.38 319.492 1425.73 311.625 1438.06 303.716C1444.22 299.773 1450.36 295.766 1456.49 291.771L1474.89 279.784L1511.74 255.829Z" fill="#919191"/>
<path d="M1511.74 270.5L1433.49 322.107C1420.41 330.65 1407.31 339.146 1394.05 347.431C1387.41 351.564 1380.73 355.612 1374 359.576C1372.31 360.581 1370.61 361.533 1368.91 362.485L1363.78 365.34L1358.66 368.202L1356.1 369.63L1353.5 370.993C1346.57 374.595 1339.51 378.044 1332.26 380.982C1325.03 384.029 1317.54 386.444 1309.88 388.197C1302.18 389.983 1294.25 390.568 1286.37 389.93C1278.48 389.153 1270.8 386.938 1263.72 383.397C1256.69 379.818 1250.13 375.377 1244.2 370.176C1241.21 367.626 1238.35 364.929 1235.58 362.156C1232.81 359.382 1230.12 356.521 1227.5 353.607C1222.27 347.772 1217.31 341.702 1212.51 335.521C1207.7 329.34 1203.05 323.053 1198.5 316.719C1180.32 291.265 1163.29 265.054 1146.07 239.001L1094.45 160.783L991.201 4.35931L994.646 2.10303L1097.04 159.079L1148.23 237.579C1165.31 263.732 1182.19 290.02 1200.18 315.514C1204.7 321.876 1209.32 328.155 1214.05 334.352C1218.8 340.527 1223.69 346.591 1228.86 352.414C1231.44 355.352 1234.09 358.178 1236.82 360.934C1239.55 363.689 1242.36 366.38 1245.3 368.919C1251.1 374.065 1257.52 378.467 1264.42 382.022C1271.32 385.52 1278.81 387.726 1286.51 388.532C1294.24 389.192 1302.03 388.657 1309.59 386.945C1317.19 385.242 1324.62 382.883 1331.8 379.895C1339.04 376.957 1346.07 373.613 1353.01 370.053L1355.61 368.713L1358.17 367.303L1363.3 364.477L1368.42 361.651C1370.13 360.71 1371.84 359.77 1373.53 358.777C1380.28 354.86 1386.98 350.853 1393.63 346.756C1406.92 338.571 1420.08 330.121 1433.19 321.649L1511.74 270.5Z" fill="#919191"/>
</svg>
