<svg width="122" height="75" viewBox="0 0 122 75" fill="none" xmlns="http://www.w3.org/2000/svg">
<g clip-path="url(#clip0_619_164)">
<path d="M114.415 54V50.4019H113.13V49.6693H116.572V50.4019H115.289V54H114.415ZM117.127 54V49.6693H118.436L119.221 52.6234L119.998 49.6693H121.31V54H120.498V50.591L119.638 54H118.796L117.939 50.591V54H117.127Z" fill="white"/>
<path d="M98.249 4V0.82416H97.1147V0.177519H100.152V0.82416H99.0208V4H98.249ZM100.643 4V0.177519H101.798L102.491 2.78494L103.177 0.177519H104.335V4H103.618V0.991035L102.859 4H102.116L101.36 0.991035V4H100.643Z" fill="white"/>
<path fill-rule="evenodd" clip-rule="evenodd" d="M98.7686 41.8783C97.779 45.0351 95.8822 47.4797 91.9837 47.4422C87.7327 47.4047 86.5182 44.8327 85.3261 41.8258H51.0415C49.722 44.8927 48.4325 47.5322 44.1291 47.4422C38.5062 47.3222 38.0864 41.9983 37.2167 41.8183C34.3977 41.8183 26.0909 42.1332 24.0741 41.5858C24.1266 40.0037 26.8031 39.5612 29.2397 39.5612C32.0061 39.5612 34.7726 39.5612 37.5316 39.5612C38.5437 37.2592 39.4958 33.9824 44.1516 33.8849C49.3171 33.7799 50.2843 38.1065 51.0415 39.5088L85.3336 39.5612C86.3832 36.5618 88.0101 33.9374 91.9837 33.8924C92.8197 33.8629 93.6534 33.9987 94.4369 34.2921C95.2204 34.5855 95.9383 35.0306 96.5494 35.602C98.4087 37.3417 97.764 37.6041 98.9036 39.6287C101.649 39.8012 104.402 39.8237 107.15 39.6962C110.052 39.5687 110.899 38.054 110.899 35.1146C110.899 24.5417 109.497 25.6965 102.787 18.1755C101.438 16.6758 100.028 15.2811 98.6711 13.7889C96.1896 11.0294 92.9658 7.11523 89.8619 5.84048C85.0637 3.88337 27.8377 5.96046 24.0741 4.88817C23.4444 2.98355 24.434 2.79609 26.3233 2.81109H76.0521C81.825 2.81109 88.0026 2.06124 92.426 4.62572C95.2449 6.2679 103.035 15.2736 105.921 18.228C109.355 21.7298 112.189 23.9944 113.028 29.1908C113.261 30.638 113.298 36.3669 112.938 37.7016C111.371 43.468 104.504 41.4134 98.7611 41.8783M96.467 41.7433C97.629 35.662 88.6249 34.5073 87.6953 39.8912C86.6382 46.01 95.3949 47.3597 96.4745 41.7433H96.467ZM40.0356 42.2757C42.1873 48.0121 50.4042 44.9302 48.4925 39.2313C46.6781 33.7874 37.9289 36.6368 40.0431 42.2757H40.0356Z" fill="white"/>
<path fill-rule="evenodd" clip-rule="evenodd" d="M42.5546 21.8418C41.0552 22.6366 30.1018 22.2242 27.6502 22.2242H1.59C1.05245 22.2587 0.520384 22.099 0.0905625 21.7743C-0.419246 19.1573 2.03983 19.9597 8.2475 19.9597H40.6728C42.3672 19.9597 42.922 20.1771 42.5546 21.8493" fill="white"/>
<path fill-rule="evenodd" clip-rule="evenodd" d="M39.4273 29.8754C38.0253 30.4153 17.9179 30.5203 15.9236 30.0179C14.4242 27.3184 17.7904 27.9108 19.9346 27.9108H34.2917C36.7733 27.9108 40.1171 27.071 39.4273 29.8754Z" fill="white"/>
<path fill-rule="evenodd" clip-rule="evenodd" d="M32.989 14.4713C28.2058 14.4713 14.9433 14.7712 11.0823 14.2314C10.8861 13.6436 10.9074 13.0051 11.1422 12.4317C14.1411 11.8318 29.3229 12.1993 33.2515 12.1993C35.658 12.1993 35.718 14.4488 32.989 14.4488" fill="white"/>
<path d="M101.655 68.3721H101.272C100.642 68.3846 100.013 68.3216 99.3979 68.1846C98.9141 68.0806 98.4895 67.793 98.2133 67.3823C98.0042 67.0188 97.8477 66.6275 97.7485 66.22L97.666 64.7653V55.3097C97.6674 55.0459 97.69 54.7826 97.7335 54.5224C97.8142 54.1665 97.9646 53.8301 98.1758 53.5326C98.4951 53.0987 98.9663 52.8014 99.4953 52.7002C100.174 52.5444 100.868 52.4664 101.565 52.4678H107.712C108.503 52.4584 109.293 52.5161 110.074 52.6402C110.335 52.658 110.589 52.7346 110.816 52.8645C111.043 52.9944 111.238 53.1741 111.386 53.3901C111.624 53.7421 111.792 54.1367 111.881 54.5524C111.946 55.0495 111.973 55.5508 111.963 56.0521V61.8409H100.462V60.1013H110.209V56.352C110.273 55.7624 110.124 55.1691 109.789 54.6798C109.504 54.3874 108.799 54.2449 107.675 54.2449H101.999C100.89 54.2449 100.178 54.4024 99.8702 54.7098C99.5512 55.1919 99.4082 55.7693 99.4653 56.3445V64.4879C99.4008 65.0739 99.5103 65.6659 99.7802 66.19C99.9976 66.4525 100.627 66.58 101.677 66.58H111.956V68.3571L101.655 68.3721Z" fill="white"/>
<path d="M101.655 68.3721H101.272C100.642 68.3846 100.013 68.3216 99.3979 68.1846C98.9141 68.0806 98.4895 67.793 98.2133 67.3823C98.0042 67.0188 97.8477 66.6275 97.7485 66.22L97.666 64.7653V55.3097C97.6674 55.0459 97.69 54.7826 97.7335 54.5224C97.8142 54.1665 97.9646 53.8301 98.1758 53.5326C98.4951 53.0987 98.9663 52.8014 99.4953 52.7002C100.174 52.5444 100.868 52.4664 101.565 52.4678H107.712C108.503 52.4584 109.293 52.5161 110.074 52.6402C110.335 52.658 110.589 52.7346 110.816 52.8645C111.043 52.9944 111.238 53.1741 111.386 53.3901C111.624 53.7421 111.792 54.1367 111.881 54.5524C111.946 55.0495 111.973 55.5508 111.963 56.0521V61.8409H100.462V60.1013H110.209V56.352C110.273 55.7624 110.124 55.1691 109.789 54.6798C109.504 54.3874 108.799 54.2449 107.675 54.2449H101.999C100.89 54.2449 100.178 54.4024 99.8702 54.7098C99.5512 55.1919 99.4082 55.7693 99.4653 56.3445V64.4879C99.4008 65.0739 99.5103 65.6659 99.7802 66.19C99.9976 66.4525 100.627 66.58 101.677 66.58H111.956V68.3571L101.655 68.3721Z" stroke="white" stroke-width="0.5" stroke-miterlimit="22.93"/>
<path d="M90.7169 52.4894C91.5175 52.4793 92.3176 52.537 93.1085 52.6619C93.4065 52.7046 93.6905 52.8163 93.9378 52.9881C94.1851 53.16 94.3889 53.3872 94.5329 53.6517C94.7274 53.9626 94.8574 54.3094 94.9153 54.6715L94.9977 56.1037V68.3712H93.1609V56.3736C93.2201 55.7961 93.0712 55.2165 92.7411 54.739C92.4562 54.4165 91.759 54.2591 90.6269 54.2591H82.7323V68.3712H80.873V52.4894H90.7169Z" fill="white"/>
<path d="M90.7169 52.4894C91.5175 52.4793 92.3176 52.537 93.1085 52.6619C93.4065 52.7046 93.6905 52.8163 93.9378 52.9881C94.1851 53.16 94.3889 53.3872 94.5329 53.6517C94.7274 53.9626 94.8574 54.3094 94.9153 54.6715L94.9977 56.1037V68.3712H93.1609V56.3736C93.2201 55.7961 93.0712 55.2165 92.7411 54.739C92.4562 54.4165 91.759 54.2591 90.6269 54.2591H82.7323V68.3712H80.873V52.4894H90.7169Z" stroke="white" stroke-width="0.5" stroke-miterlimit="22.93"/>
<path d="M77.7399 52.4668H75.873V68.3711H77.7399V52.4668Z" fill="#EF7C00"/>
<path d="M77.7399 52.4668H75.873V68.3711H77.7399V52.4668Z" stroke="#EF7C00" stroke-width="0.5" stroke-miterlimit="22.93"/>
<path d="M77.7379 49.1289H75.8711V50.7336H77.7379V49.1289Z" fill="#EF7C00"/>
<path d="M77.7379 49.1289H75.8711V50.7336H77.7379V49.1289Z" stroke="#EF7C00" stroke-width="0.5" stroke-miterlimit="22.93"/>
<path d="M72.8063 47.3379H70.9395V68.3712H72.8063V47.3379Z" fill="white"/>
<path d="M72.8063 47.3379H70.9395V68.3712H72.8063V47.3379Z" stroke="white" stroke-width="0.5" stroke-miterlimit="22.93"/>
<path d="M55.982 74.8126H54.1152V52.4896H64.2814C65.0049 52.4798 65.7278 52.5375 66.4406 52.6621C66.724 52.7139 66.9916 52.8301 67.223 53.0017C67.4544 53.1733 67.6432 53.3957 67.7751 53.6519C67.9758 53.9596 68.1064 54.3078 68.1575 54.6717L68.2249 56.0814V64.7646C68.2318 65.2656 68.2067 65.7665 68.15 66.2643C68.0748 66.6652 67.9165 67.0458 67.6851 67.3816C67.3509 67.839 66.8499 68.1462 66.2907 68.2364C65.5203 68.3642 64.7399 68.4219 63.959 68.4089H57.0316V66.5943H63.9366C65.0386 66.5943 65.7359 66.4518 66.0283 66.1594C66.3818 65.678 66.5399 65.0805 66.4706 64.4872V56.3438C66.5374 55.7496 66.4252 55.1491 66.1482 54.6192C65.9308 54.3717 65.301 54.2442 64.2514 54.2442H56.0045L55.982 74.8126Z" fill="white"/>
<path d="M55.982 74.8126H54.1152V52.4896H64.2814C65.0049 52.4798 65.7278 52.5375 66.4406 52.6621C66.724 52.7139 66.9916 52.8301 67.223 53.0017C67.4544 53.1733 67.6432 53.3957 67.7751 53.6519C67.9758 53.9596 68.1064 54.3078 68.1575 54.6717L68.2249 56.0814V64.7646C68.2318 65.2656 68.2067 65.7665 68.15 66.2643C68.0748 66.6652 67.9165 67.0458 67.6851 67.3816C67.3509 67.839 66.8499 68.1462 66.2907 68.2364C65.5203 68.3642 64.7399 68.4219 63.959 68.4089H57.0316V66.5943H63.9366C65.0386 66.5943 65.7359 66.4518 66.0283 66.1594C66.3818 65.678 66.5399 65.0805 66.4706 64.4872V56.3438C66.5374 55.7496 66.4252 55.1491 66.1482 54.6192C65.9308 54.3717 65.301 54.2442 64.2514 54.2442H56.0045L55.982 74.8126Z" stroke="white" stroke-width="0.5" stroke-miterlimit="22.93"/>
<path d="M39.1891 74.8124H37.3223V52.4893H47.4885C48.212 52.4796 48.9348 52.5373 49.6476 52.6618C49.9283 52.7128 50.194 52.8262 50.4249 52.9936C50.6559 53.161 50.8463 53.3782 50.9821 53.6291C51.1771 53.9391 51.3048 54.2865 51.357 54.6489L51.447 56.0811V64.7644C51.4538 65.2654 51.4288 65.7663 51.372 66.2641C51.3002 66.6659 51.1416 67.0472 50.9072 67.3814C50.7382 67.6112 50.5253 67.8051 50.2807 67.9518C50.0362 68.0986 49.7649 68.1952 49.4827 68.2362C48.7148 68.3637 47.9369 68.4214 47.1586 68.4087H40.2387V66.594H47.1436C48.2457 66.594 48.9504 66.4516 49.2353 66.1591C49.5888 65.6777 49.7469 65.0802 49.6776 64.4869V56.3436C49.7444 55.7494 49.6322 55.1488 49.3553 54.6189C49.1378 54.3715 48.5081 54.244 47.4585 54.244H39.2116L39.1891 74.8124Z" fill="white"/>
<path d="M39.1891 74.8124H37.3223V52.4893H47.4885C48.212 52.4796 48.9348 52.5373 49.6476 52.6618C49.9283 52.7128 50.194 52.8262 50.4249 52.9936C50.6559 53.161 50.8463 53.3782 50.9821 53.6291C51.1771 53.9391 51.3048 54.2865 51.357 54.6489L51.447 56.0811V64.7644C51.4538 65.2654 51.4288 65.7663 51.372 66.2641C51.3002 66.6659 51.1416 67.0472 50.9072 67.3814C50.7382 67.6112 50.5253 67.8051 50.2807 67.9518C50.0362 68.0986 49.7649 68.1952 49.4827 68.2362C48.7148 68.3637 47.9369 68.4214 47.1586 68.4087H40.2387V66.594H47.1436C48.2457 66.594 48.9504 66.4516 49.2353 66.1591C49.5888 65.6777 49.7469 65.0802 49.6776 64.4869V56.3436C49.7444 55.7494 49.6322 55.1488 49.3553 54.6189C49.1378 54.3715 48.5081 54.244 47.4585 54.244H39.2116L39.1891 74.8124Z" stroke="white" stroke-width="0.5" stroke-miterlimit="22.93"/>
<path d="M20.588 52.4883H22.4248V63.5861C22.4165 64.0517 22.4592 64.5169 22.5523 64.9733C22.6503 65.3548 22.8468 65.7039 23.1221 65.9856C23.4248 66.2989 23.8283 66.4953 24.2616 66.5405C24.7265 66.593 25.5287 66.623 26.6757 66.623H32.9134V52.4883H34.7427V68.3701H25.1913C24.5187 68.3906 23.8458 68.3454 23.182 68.2351C22.5671 68.1083 22.0066 67.794 21.5776 67.3353C21.2242 66.9775 20.9664 66.5366 20.8279 66.0531C20.6399 65.1611 20.5618 64.2495 20.5955 63.3386L20.588 52.4883Z" fill="white"/>
<path d="M20.588 52.4883H22.4248V63.5861C22.4165 64.0517 22.4592 64.5169 22.5523 64.9733C22.6503 65.3548 22.8468 65.7039 23.1221 65.9856C23.4248 66.2989 23.8283 66.4953 24.2616 66.5405C24.7265 66.593 25.5287 66.623 26.6757 66.623H32.9134V52.4883H34.7427V68.3701H25.1913C24.5187 68.3906 23.8458 68.3454 23.182 68.2351C22.5671 68.1083 22.0066 67.794 21.5776 67.3353C21.2242 66.9775 20.9664 66.5366 20.8279 66.0531C20.6399 65.1611 20.5618 64.2495 20.5955 63.3386L20.588 52.4883Z" stroke="white" stroke-width="0.5" stroke-miterlimit="22.93"/>
<path fill-rule="evenodd" clip-rule="evenodd" d="M29.518 41.7509V39.6738H7.6712C7.10891 39.6738 6.54662 39.6738 5.98433 39.7488C5.42204 39.8238 4.75479 39.8988 4.14752 39.9963C3.47169 40.1247 2.85596 40.4695 2.39318 40.9786C1.91375 41.4182 1.58571 41.9983 1.45603 42.6357C1.37356 43.2206 1.31358 43.813 1.28359 44.3979C1.2536 44.9828 1.24611 45.7401 1.24611 46.355V49.6843C1.24489 50.5009 1.33034 51.3153 1.50101 52.1138C1.62629 52.7235 1.93809 53.279 2.39318 53.7035C2.77784 54.0985 3.23979 54.4099 3.75017 54.6183C4.73395 54.8367 5.74252 54.9224 6.74904 54.8733H12.5144L14.5011 55.0233C15.0151 55.0608 15.506 55.2514 15.9106 55.5706C16.2467 55.8182 16.4791 56.1815 16.5629 56.5904C16.7042 57.2783 16.7596 57.981 16.7278 58.6825V62.0718L16.5704 63.8115C16.4264 64.3126 16.17 64.7742 15.8206 65.1612C15.4752 65.5611 15.0001 65.8265 14.4786 65.9111C13.7333 66.0104 12.9812 66.0505 12.2295 66.0311H1.24611V68.0332H12.3869C13.4434 68.0449 14.4991 67.9696 15.5432 67.8082C16.3231 67.6799 17.0451 67.3162 17.6125 66.7659C18.0989 66.2609 18.4339 65.6297 18.5796 64.9438C18.7571 64.0199 18.8375 63.08 18.8195 62.1393V58.1801C18.8334 57.3315 18.7529 56.484 18.5796 55.6531C18.4294 55.0146 18.0928 54.4351 17.6125 53.9885C17.1956 53.5213 16.6326 53.2094 16.0156 53.1036C15.0817 52.9277 14.1316 52.8522 13.1816 52.8787H7.58873L5.56449 52.7662C5.04773 52.6963 4.55603 52.5006 4.13252 52.1963C3.76366 51.8721 3.5263 51.4239 3.46527 50.9366L3.34532 49.1069V45.6426C3.33654 45.0645 3.38425 44.4869 3.48777 43.918C3.62184 43.3701 3.90767 42.8711 4.31246 42.4783C4.93467 41.9427 5.74254 41.6733 6.56161 41.7284L29.518 41.7509Z" fill="white"/>
<path d="M29.518 41.7509V39.6738H7.6712C7.10891 39.6738 6.54662 39.6738 5.98433 39.7488C5.42204 39.8238 4.75479 39.8988 4.14752 39.9963C3.47169 40.1247 2.85596 40.4695 2.39318 40.9786C1.91375 41.4182 1.58571 41.9983 1.45603 42.6357C1.37356 43.2206 1.31358 43.813 1.28359 44.3979C1.2536 44.9828 1.24611 45.7401 1.24611 46.355V49.6843C1.24489 50.5009 1.33034 51.3153 1.50101 52.1138C1.62629 52.7235 1.93809 53.279 2.39318 53.7035C2.77784 54.0985 3.23979 54.4099 3.75017 54.6183C4.73395 54.8367 5.74252 54.9224 6.74904 54.8733H12.5144L14.5011 55.0233C15.0151 55.0608 15.506 55.2514 15.9106 55.5706C16.2467 55.8182 16.4791 56.1815 16.5629 56.5904C16.7042 57.2783 16.7596 57.981 16.7278 58.6825V62.0718L16.5704 63.8115C16.4264 64.3126 16.17 64.7742 15.8206 65.1612C15.4752 65.5611 15.0001 65.8265 14.4786 65.9111C13.7333 66.0104 12.9812 66.0505 12.2295 66.0311H1.24611V68.0332H12.3869C13.4434 68.0449 14.4991 67.9696 15.5432 67.8082C16.3231 67.6799 17.0451 67.3162 17.6125 66.7659C18.0989 66.2609 18.4339 65.6297 18.5796 64.9438C18.7571 64.0199 18.8375 63.08 18.8195 62.1393V58.1801C18.8334 57.3315 18.7529 56.484 18.5796 55.6531C18.4294 55.0146 18.0928 54.4351 17.6125 53.9885C17.1956 53.5213 16.6326 53.2094 16.0156 53.1036V53.1036C15.0817 52.9277 14.1316 52.8522 13.1816 52.8787H7.58873L5.56449 52.7662C5.04773 52.6963 4.55603 52.5006 4.13252 52.1963C3.76366 51.8721 3.5263 51.4239 3.46527 50.9366L3.34532 49.1069V45.6426C3.33654 45.0645 3.38425 44.4869 3.48777 43.918C3.62184 43.3701 3.90767 42.8711 4.31246 42.4783C4.93467 41.9427 5.74254 41.6733 6.56161 41.7284L29.518 41.7509Z" stroke="white" stroke-width="0.22" stroke-miterlimit="22.93"/>
</g>
<defs>
<clipPath id="clip0_619_164">
<rect width="122" height="75" fill="white"/>
</clipPath>
</defs>
</svg>
